<svg width="14" height="15" viewBox="0 0 14 15" fill="none" xmlns="http://www.w3.org/2000/svg">
<g id="edit">
<mask id="mask0_883_4400" style="mask-type:alpha" maskUnits="userSpaceOnUse" x="0" y="0" width="14" height="15">
<rect id="Bounding box" y="0.5" width="14" height="14" fill="#D9D9D9"/>
</mask>
<g mask="url(#mask0_883_4400)">
<path id="edit_2" d="M2.91667 11.5833H3.74792L9.45 5.88125L8.61875 5.05L2.91667 10.7521V11.5833ZM1.75 12.75V10.2708L9.45 2.58542C9.56667 2.47847 9.69549 2.39583 9.83646 2.3375C9.97743 2.27917 10.1257 2.25 10.2812 2.25C10.4368 2.25 10.5875 2.27917 10.7333 2.3375C10.8792 2.39583 11.0056 2.48333 11.1125 2.6L11.9146 3.41667C12.0312 3.52361 12.1163 3.65 12.1698 3.79583C12.2233 3.94167 12.25 4.0875 12.25 4.23333C12.25 4.38889 12.2233 4.53715 12.1698 4.67812C12.1163 4.8191 12.0312 4.94792 11.9146 5.06458L4.22917 12.75H1.75ZM9.02708 5.47292L8.61875 5.05L9.45 5.88125L9.02708 5.47292Z" fill="#111827"/>
</g>
</g>
</svg>
