<svg width="11" height="12" viewBox="0 0 11 12" fill="none" xmlns="http://www.w3.org/2000/svg">
<path d="M1.41667 10.0833H2.24792L7.95 4.38125L7.11875 3.55L1.41667 9.25208V10.0833ZM0.25 11.25V8.77083L7.95 1.08542C8.06667 0.978472 8.19549 0.895833 8.33646 0.8375C8.47743 0.779167 8.62569 0.75 8.78125 0.75C8.93681 0.75 9.0875 0.779167 9.23333 0.8375C9.37917 0.895833 9.50556 0.983333 9.6125 1.1L10.4146 1.91667C10.5312 2.02361 10.6163 2.15 10.6698 2.29583C10.7233 2.44167 10.75 2.5875 10.75 2.73333C10.75 2.88889 10.7233 3.03715 10.6698 3.17812C10.6163 3.3191 10.5312 3.44792 10.4146 3.56458L2.72917 11.25H0.25ZM7.52708 3.97292L7.11875 3.55L7.95 4.38125L7.52708 3.97292Z" fill="#111827"/>
</svg>
