<svg width="12" height="15" viewBox="0 0 12 15" fill="none" xmlns="http://www.w3.org/2000/svg">
<g id="delete">
<mask id="mask0_883_4394" style="mask-type:alpha" maskUnits="userSpaceOnUse" x="0" y="0" width="12" height="15">
<rect id="Bounding box" y="0.5" width="11.2" height="14" fill="#D9D9D9"/>
</mask>
<g mask="url(#mask0_883_4394)">
<path id="delete_2" d="M3.26719 12.75C3.01052 12.75 2.7908 12.6358 2.60802 12.4073C2.42524 12.1788 2.33385 11.9042 2.33385 11.5833V4H1.86719V2.83333H4.20052V2.25H7.00052V2.83333H9.33385V4H8.86719V11.5833C8.86719 11.9042 8.7758 12.1788 8.59302 12.4073C8.41024 12.6358 8.19052 12.75 7.93385 12.75H3.26719ZM7.93385 4H3.26719V11.5833H7.93385V4ZM4.20052 10.4167H5.13385V5.16667H4.20052V10.4167ZM6.06719 10.4167H7.00052V5.16667H6.06719V10.4167Z" fill="#111827"/>
</g>
</g>

</svg>
