<svg width="65" height="64" viewBox="0 0 65 64" fill="none" xmlns="http://www.w3.org/2000/svg">
<path d="M0.125 32C0.125 14.3269 14.4519 0 32.125 0C49.7981 0 64.125 14.3269 64.125 32C64.125 49.6731 49.7981 64 32.125 64C14.4519 64 0.125 49.6731 0.125 32Z" fill="#36725D"/>
<path d="M23.0908 49.479H19.9914C19.8148 49.4924 19.609 49.5 19.4015 49.5C18.3132 49.5 17.2739 49.2904 16.3224 48.9097L16.3779 48.9293C15.3256 48.3491 14.625 47.2504 14.625 45.9887C14.625 45.8667 14.6315 45.7463 14.6443 45.6277L14.643 45.6424C14.9902 43.5651 15.691 41.7052 16.6867 40.0405L16.646 40.114C17.7425 38.1218 19.4822 35.7452 21.5379 35.7452C23.5937 35.7452 25.3317 38.1281 26.4298 40.1378C27.3797 41.7224 28.0798 43.5734 28.4193 45.547L28.4328 45.6424C28.4328 49.479 25.2183 49.479 23.0908 49.479L23.0908 49.479ZM21.5379 47.8824H23.0909C25.9015 47.8824 26.8367 47.5647 26.8367 45.6345C26.472 43.8464 25.8451 42.2584 24.9893 40.8214L25.0284 40.8924C23.8043 38.6683 22.5003 37.3338 21.5379 37.3338C20.5755 37.3338 19.2668 38.6588 18.0458 40.8765C17.2271 42.2495 16.6004 43.8459 16.2557 45.5441L16.2391 45.6424C16.2391 46.9133 16.67 47.2993 17.093 47.5122C17.7996 47.7636 18.6148 47.9089 19.4641 47.9089C19.6474 47.9089 19.8291 47.9022 20.009 47.8888L19.985 47.8903H20.724L21.5379 47.8824ZM39.3817 29.2811C42.7541 29.5004 45.8285 30.6065 48.4205 32.365L48.3577 32.3249C49.1039 32.9675 49.5849 33.898 49.6248 34.941L49.625 34.9478C49.6058 36.565 48.2524 37.8518 46.6867 39.3419L46.1951 39.8185C45.9269 40.0759 45.6652 40.3365 45.4114 40.5891C43.9574 42.0347 42.6981 43.2898 41.1292 43.2898C40.1305 43.2456 39.2443 42.8001 38.6232 42.1127L38.6203 42.1094L38.6091 42.0983C37.5204 40.5869 36.6676 38.821 36.152 36.9176L36.1257 36.8034C35.4776 34.6126 35.0084 31.6991 36.4592 30.2566C37.1577 29.6442 38.0803 29.2705 39.0905 29.2705C39.193 29.2705 39.2945 29.2744 39.3949 29.2819L39.3815 29.2811L39.3817 29.2811ZM41.1277 41.6883C42.0406 41.6883 43.0796 40.6557 44.2831 39.4642L45.0811 38.6699L45.5807 38.1933C46.8878 36.9509 48.0146 35.8786 48.0258 34.9286C47.9661 34.3285 47.6695 33.807 47.2317 33.4511L47.2278 33.448C44.9947 32.025 42.3172 31.0946 39.4401 30.8733L39.3817 30.8697C39.3045 30.8615 39.215 30.8568 39.1244 30.8568C38.5438 30.8568 38.0082 31.0484 37.578 31.3716L37.5846 31.3669C36.9063 32.0421 36.9318 33.9088 37.6548 36.341C38.1308 38.0986 38.845 39.6384 39.7751 41.0223L39.7392 40.9656C40.0817 41.3638 40.5681 41.6308 41.1173 41.6861L41.1262 41.6868L41.1277 41.6883ZM26.0658 14.521H29.2085C29.3864 14.5076 29.5938 14.5 29.803 14.5C30.9007 14.5 31.9493 14.7095 32.9107 15.0905L32.8539 15.0706C33.9093 15.6488 34.6125 16.7484 34.6125 18.0115C34.6125 18.1361 34.6056 18.2593 34.5922 18.3804L34.5936 18.3655C34.2475 20.4427 33.5472 22.3027 32.5515 23.9674L32.5922 23.8939C31.4973 25.875 29.7624 28.2468 27.7147 28.2468C25.667 28.2468 23.9113 25.8639 22.7925 23.8606C21.8241 22.2808 21.1075 20.4341 20.7543 18.4621L20.7399 18.3655C20.7399 14.521 23.9448 14.521 26.0659 14.521H26.0658ZM27.6347 16.1255H26.8096L26.0658 16.1096C23.2217 16.1096 22.3359 16.4274 22.3359 18.3655C22.7147 20.1488 23.355 21.7293 24.224 23.1564L24.1856 23.0885C25.437 25.3238 26.7553 26.6582 27.7145 26.6582C28.6737 26.6582 29.9745 25.3365 31.1923 23.1235C32.01 21.7528 32.6361 20.159 32.9808 18.4637L32.9974 18.3655C32.9974 17.0946 32.5617 16.7102 32.1355 16.4973C31.4143 16.2407 30.5822 16.0923 29.7153 16.0923C29.537 16.0923 29.3601 16.0986 29.1849 16.1109L29.2084 16.1096H28.4598L27.6347 16.1255Z" fill="#F9FAFB"/>
</svg>
