<svg width="142" height="151" viewBox="0 0 142 151" fill="none" xmlns="http://www.w3.org/2000/svg">
<g id="Group 2062">
<path id="Vector" d="M106.083 115.286C125.551 95.818 125.551 64.2541 106.083 44.7861C86.615 25.318 55.051 25.318 35.583 44.786C16.115 64.2541 16.115 95.818 35.583 115.286C55.0511 134.754 86.615 134.754 106.083 115.286Z" fill="#8BC7B2"/>
<g id="Group">
<path id="Vector_2" fill-rule="evenodd" clip-rule="evenodd" d="M19.1259 100.808L40.8263 100.606C49.3801 100.526 48.8277 87.7139 40.7843 87.7885L19.085 87.992C10.529 88.0712 11.0825 100.884 19.1259 100.808Z" fill="#D58881"/>
<g id="Group_2">
<path id="Vector_3" fill-rule="evenodd" clip-rule="evenodd" d="M67.3081 42.9823C67.4509 42.1015 67.6213 41.2546 67.8162 40.4394C68.0154 39.6129 68.2401 38.8214 68.4881 38.0695C69.4202 35.2541 70.6899 32.9396 72.2109 31.0717C73.8581 29.0478 75.7965 27.5463 77.9142 26.4925C79.878 25.5167 81.9946 24.9254 84.1709 24.6631C86.5078 24.3827 88.9177 24.4788 91.2911 24.8779C92.0915 25.0125 92.8896 25.1843 93.6833 25.3867C94.487 25.5925 95.2796 25.8322 96.0611 26.1013C96.1497 26.1307 96.2172 26.1951 96.2571 26.2743C96.2958 26.3523 96.3036 26.4462 96.2748 26.5366L96.2659 26.5604C96.1586 26.8679 93.8361 33.4903 89.1402 38.8327C84.3923 44.2373 77.2278 48.3394 67.4885 43.3531C67.4188 43.3181 67.3656 43.2604 67.3335 43.1937C67.3047 43.1315 67.2959 43.0569 67.3081 42.9823Z" fill="#789EAE"/>
<path id="Vector_4" fill-rule="evenodd" clip-rule="evenodd" d="M86.5706 68.444C84.423 68.444 82.3761 68.8861 80.512 69.6855C78.8216 67.7181 76.3419 66.4755 73.5789 66.4755C72.184 66.4755 70.8645 66.7921 69.6811 67.3574C67.073 61.2563 61.1152 56.9914 54.181 56.9914C44.8424 56.9914 37.2749 64.7229 37.2749 74.259C37.2749 74.5982 37.2849 74.9341 37.3037 75.2676C36.9428 75.2235 36.5775 75.1998 36.2067 75.1998C31.1134 75.1998 26.9832 79.4172 26.9832 84.6205C26.9832 85.2594 27.0463 85.8846 27.1659 86.4884C27.0009 86.476 26.836 86.4692 26.6699 86.4692C22.8951 86.4692 19.8342 89.5955 19.8342 93.4522C19.8342 95.1381 20.4187 96.6837 21.3929 97.8913C27.2788 98.6986 33.0617 98.4566 36.0993 98.9292C39.6683 99.4855 69.1442 85.3521 96.2723 71.8812C93.6044 69.7284 90.2336 68.444 86.5706 68.444Z" fill="#875371"/>
<path id="Vector_5" fill-rule="evenodd" clip-rule="evenodd" d="M54.1305 27.8674C54.1936 26.7932 54.2136 25.7519 54.1981 24.7411C54.1792 23.7144 54.1217 22.724 54.0254 21.7731C53.6656 18.2103 52.7767 15.145 51.4771 12.5343C50.0701 9.70876 48.1838 7.41575 45.9687 5.60102C43.9163 3.91971 41.585 2.65109 39.0931 1.74882C36.4208 0.782089 33.5637 0.238238 30.6722 0.0629831C29.6947 0.00305737 28.7117 -0.0127774 27.7276 0.00983611C26.7291 0.0335803 25.7339 0.0969046 24.7476 0.202057C24.6357 0.213364 24.5394 0.269893 24.473 0.352432C24.4077 0.434971 24.3723 0.542391 24.3834 0.656589L24.3878 0.685979C24.4332 1.07832 25.4339 9.49167 29.5574 17.0491C33.7286 24.6936 41.0757 31.4641 53.8228 28.2563C53.9136 28.2326 53.9888 28.1817 54.0442 28.1105C54.0962 28.0426 54.1261 27.9578 54.1305 27.8674Z" fill="#789EAE"/>
<path id="Vector_6" d="M60.616 73.956C60.616 73.956 60.616 51.8083 60.616 43.1202C60.616 34.431 56.592 29.8303 52.5681 25.9114" stroke="#663B55" stroke-width="2.126" stroke-miterlimit="2.6131" stroke-linecap="round" stroke-linejoin="round"/>
<path id="Vector_7" d="M60.616 73.9559C60.616 73.9559 60.616 59.1712 60.616 53.372C60.616 47.5716 64.6399 44.4996 68.6627 41.8855" stroke="#663B55" stroke-width="2.126" stroke-miterlimit="2.6131" stroke-linecap="round" stroke-linejoin="round"/>
<path id="Vector_8" d="M27.9434 94.957C27.9434 87.3634 33.9687 81.2092 41.4033 81.2092C43.2487 81.2092 45.0077 81.5891 46.6095 82.2754C48.0619 80.5839 50.1929 79.5177 52.5685 79.5177C53.7662 79.5177 54.9009 79.7891 55.9193 80.2752C58.1588 75.0312 63.2809 71.3655 69.2398 71.3655" stroke="#663B55" stroke-width="1.4173" stroke-miterlimit="2.6131" stroke-linecap="round" stroke-linejoin="round"/>
</g>
<path id="Vector_9" fill-rule="evenodd" clip-rule="evenodd" d="M83.928 86.1502L91.4566 92.958L115.153 98.7019C121.539 100.241 121.773 94.0062 121.779 93.8106V93.806V78.3588C121.779 72.3006 115.78 71.5453 115.591 71.5227L115.586 71.5216L89.3943 68.6203L83.928 86.1502Z" fill="#E9BAA8"/>
<path id="Vector_10" fill-rule="evenodd" clip-rule="evenodd" d="M91.457 92.9581L115.153 98.7019C121.54 100.241 121.773 94.0063 121.78 93.8107V93.8061V91.4351C117.334 90.2016 112.281 88.8436 110.391 88.4931C106.73 87.8158 102.68 89.1048 102.68 89.1048L91.457 92.9581Z" fill="#D58881"/>
<path id="Vector_11" fill-rule="evenodd" clip-rule="evenodd" d="M18.6763 107.51L40.3768 107.306C48.9316 107.226 48.3781 94.4154 40.3336 94.4889L18.6343 94.6924C10.0794 94.7727 10.6329 107.586 18.6763 107.51Z" fill="#E9BAA8"/>
<path id="Vector_12" fill-rule="evenodd" clip-rule="evenodd" d="M34.7368 107.618L56.3996 106.318C64.94 105.806 63.7655 93.0373 55.7354 93.5201L34.0726 94.8203C25.5321 95.3325 26.7066 108.101 34.7368 107.618Z" fill="#E9BAA8"/>
<path id="Vector_13" fill-rule="evenodd" clip-rule="evenodd" d="M21.23 107.501C21.1813 106.43 21.0662 104.344 20.8669 103.215C20.5946 101.657 18.9286 101.449 18.9164 101.449L17.1995 101.455C15.3308 101.462 13.77 102.854 13.4512 104.671C14.5847 106.387 16.5087 107.518 18.6751 107.51L21.23 107.501Z" fill="#D58881"/>
<path id="Vector_14" fill-rule="evenodd" clip-rule="evenodd" d="M58.7703 105.838L91.4566 92.958C88.4633 88.9577 86.9279 85.3045 89.2337 81.9487C90.7935 79.6794 82.9294 80.6699 73.2 82.6044L53.8099 92.8009C47.6816 96.0233 51.3756 108.752 58.7703 105.838Z" fill="#E9BAA8"/>
<path id="Vector_15" fill-rule="evenodd" clip-rule="evenodd" d="M88.1789 84.5876C88.2088 83.4976 88.4745 83.1019 89.1542 82.0696L79.8045 81.4025C77.782 81.727 75.5459 82.1374 73.2001 82.6055L53.81 92.8019C53.3351 93.0518 52.9189 93.3582 52.5591 93.711L38.9685 94.5273C38.8047 94.5126 38.6231 94.5058 38.4228 94.5092L25.9248 94.6257C25.9248 94.6257 26.537 97.0894 28.7255 98.3309C29.2768 98.8058 30.6982 99.335 33.1867 99.2807L50.7293 98.8951L50.8898 98.8906L51.3126 98.8816L51.7267 98.8725L52.1318 98.8623L52.527 98.8544L52.9145 98.8454L53.2897 98.8363L53.6539 98.8284L54.006 98.8205L54.3458 98.8137L54.6735 98.8047L54.9868 98.799L55.2868 98.7922L55.5724 98.7854L55.8414 98.7798L56.096 98.7741L56.3329 98.7685L56.5543 98.7628L56.758 98.7583L56.9439 98.7549L57.11 98.7504L57.2572 98.7481L57.3856 98.7447C57.9015 98.7323 59.4911 98.1624 61.7372 97.2432L61.6996 97.1573C68.3427 94.2582 80.7941 88.0802 88.1789 84.5876Z" fill="#D58881"/>
<path id="Vector_16" fill-rule="evenodd" clip-rule="evenodd" d="M61.559 94.5476L98.8482 80.8439C108.272 77.3795 95.6534 61.0582 81.32 68.1781L56.5643 80.4753C49.93 83.7689 53.5787 97.4806 61.559 94.5476Z" fill="#E9BAA8"/>
<path id="Vector_17" fill-rule="evenodd" clip-rule="evenodd" d="M42.5345 96.1713L58.659 94.9253C62.3763 94.637 65.188 91.2958 64.908 87.499C64.6268 83.7022 61.3545 80.8303 57.6372 81.1175L41.5127 82.3635C37.7965 82.6507 34.9848 85.9918 35.2648 89.7886C35.546 93.5866 38.8172 96.4585 42.5345 96.1713Z" fill="#E9BAA8"/>
<path id="Vector_18" fill-rule="evenodd" clip-rule="evenodd" d="M41.8334 95.4219L45.0049 95.1777C46.0001 95.1008 46.0942 93.9328 46.0942 93.9328C46.0942 93.9328 45.7112 90.2807 45.296 88.6186C44.8831 86.961 43.0721 86.8717 43.0599 86.8706L41.2101 87.0142C38.9463 87.1883 37.2338 89.2247 37.4043 91.5369C37.5759 93.8491 39.5696 95.5972 41.8334 95.4219Z" fill="#D58881"/>
</g>
</g>
</svg>
