<svg width="65" height="64" viewBox="0 0 65 64" fill="none" xmlns="http://www.w3.org/2000/svg">
<path d="M0.625 32C0.625 14.3269 14.9519 0 32.625 0C50.2981 0 64.625 14.3269 64.625 32C64.625 49.6731 50.2981 64 32.625 64C14.9519 64 0.625 49.6731 0.625 32Z" fill="#36725D"/>
<path d="M44.8749 35.5C45.3391 35.5 45.7842 35.3157 46.1124 34.9875C46.4406 34.6593 46.6249 34.2142 46.6249 33.75V30.25C46.6249 29.7859 46.4406 29.3408 46.1124 29.0126C45.7842 28.6844 45.3391 28.5001 44.8749 28.5001H20.375C19.9109 28.5001 19.4658 28.6844 19.1376 29.0126C18.8094 29.3408 18.625 29.7859 18.625 30.25V33.75C18.625 34.2142 18.8094 34.6593 19.1376 34.9875C19.4658 35.3157 19.9109 35.5 20.375 35.5M44.8749 35.5H20.375M44.8749 35.5L41.3749 49.5H23.875L20.375 35.5M32.688 23.1976C32.688 23.1976 38.0692 23.7331 40.8867 21.3863C43.7042 19.0378 43.0619 14.5526 43.0619 14.5526C43.0619 14.5526 37.6807 14.0171 34.8632 16.3638C32.0457 18.7123 32.688 23.1976 32.688 23.1976Z" stroke="#F9FAFB" stroke-width="2" stroke-linecap="round" stroke-linejoin="round"/>
<path d="M32.562 23.1976C32.562 23.1976 27.1807 23.7331 24.3632 21.3863C21.5457 19.0378 22.188 14.5526 22.188 14.5526C22.188 14.5526 27.5692 14.0171 30.3885 16.3638C33.206 18.7123 32.562 23.1976 32.562 23.1976Z" stroke="#F9FAFB" stroke-width="2" stroke-linecap="round" stroke-linejoin="round"/>
</svg>
