<svg width="24" height="24" viewBox="0 0 24 24" fill="none" xmlns="http://www.w3.org/2000/svg">
<path d="M8.00001 10.9977C8.00001 10.7325 8.10537 10.4781 8.2929 10.2906C8.48044 10.1031 8.7348 9.99772 9.00001 9.99772H15C15.2652 9.99772 15.5196 10.1031 15.7071 10.2906C15.8947 10.4781 16 10.7325 16 10.9977C16 11.2629 15.8947 11.5173 15.7071 11.7048C15.5196 11.8924 15.2652 11.9977 15 11.9977H9.00001C8.7348 11.9977 8.48044 11.8924 8.2929 11.7048C8.10537 11.5173 8.00001 11.2629 8.00001 10.9977ZM9.00001 13.9977C8.7348 13.9977 8.48044 14.1031 8.2929 14.2906C8.10537 14.4781 8.00001 14.7325 8.00001 14.9977C8.00001 15.2629 8.10537 15.5173 8.2929 15.7048C8.48044 15.8924 8.7348 15.9977 9.00001 15.9977H13C13.2652 15.9977 13.5196 15.8924 13.7071 15.7048C13.8947 15.5173 14 15.2629 14 14.9977C14 14.7325 13.8947 14.4781 13.7071 14.2906C13.5196 14.1031 13.2652 13.9977 13 13.9977H9.00001ZM2.00001 11.9977C2.00051 9.80531 2.72149 7.67383 4.052 5.93131C5.3825 4.18879 7.24878 2.93179 9.36361 2.35379C11.4784 1.77579 13.7246 1.9088 15.7565 2.73237C17.7883 3.55594 19.4932 5.02441 20.6087 6.91178C21.7243 8.79916 22.1886 11.0008 21.9304 13.178C21.6721 15.3551 20.7056 17.387 19.1794 18.9611C17.6533 20.5351 15.6521 21.5639 13.484 21.8893C11.3159 22.2146 9.10093 21.8185 7.18001 20.7617L3.29201 21.9457C3.11859 21.9985 2.93408 22.0032 2.7582 21.9593C2.58232 21.9153 2.42169 21.8244 2.29351 21.6962C2.16532 21.568 2.07439 21.4074 2.03044 21.2315C1.98649 21.0557 1.99118 20.8711 2.04401 20.6977L3.22801 16.8037C2.41992 15.3309 1.99749 13.6776 2.00001 11.9977ZM12 3.99772C10.5799 3.9976 9.18533 4.37551 7.95957 5.09263C6.73381 5.80975 5.72103 6.84023 5.02527 8.07824C4.3295 9.31625 3.97582 10.7171 4.00055 12.1371C4.02529 13.557 4.42755 14.9447 5.16601 16.1577C5.23932 16.2782 5.2863 16.4129 5.30388 16.5528C5.32146 16.6927 5.30924 16.8348 5.26801 16.9697L4.50201 19.4877L7.01601 18.7217C7.15133 18.6805 7.29385 18.6684 7.43417 18.6864C7.57449 18.7043 7.70941 18.7518 7.83001 18.8257C8.88437 19.4694 10.0735 19.8602 11.3041 19.9675C12.5348 20.0748 13.7736 19.8956 14.9234 19.4439C16.0733 18.9923 17.1029 18.2806 17.9316 17.3644C18.7603 16.4483 19.3656 15.3527 19.7 14.1635C20.0344 12.9743 20.0889 11.7238 19.8592 10.51C19.6295 9.29623 19.1218 8.15213 18.3759 7.16739C17.63 6.18265 16.6662 5.38403 15.56 4.83411C14.4539 4.28419 13.2353 3.99791 12 3.99772Z" fill="#111827"/>
</svg>
