<svg width="24" height="24" viewBox="0 0 24 24" fill="none" xmlns="http://www.w3.org/2000/svg">
<path d="M10.1459 3.24884C10.2953 2.87955 10.5516 2.5633 10.8819 2.34061C11.2122 2.11793 11.6015 1.99896 11.9999 1.99896C12.3983 1.99896 12.7876 2.11793 13.1179 2.34061C13.4482 2.5633 13.7045 2.87955 13.8539 3.24884C15.3327 3.65552 16.637 4.5364 17.5667 5.75617C18.4963 6.97595 18.9998 8.46718 18.9999 10.0008V14.6978L20.8319 17.4458C20.9324 17.5964 20.9901 17.7715 20.9989 17.9523C21.0077 18.1332 20.9672 18.313 20.8818 18.4726C20.7964 18.6322 20.6692 18.7657 20.5139 18.8587C20.3586 18.9517 20.181 19.0009 19.9999 19.0008H15.4649C15.3445 19.8339 14.928 20.5958 14.2916 21.1468C13.6552 21.6978 12.8417 22.0011 11.9999 22.0011C11.1581 22.0011 10.3446 21.6978 9.7082 21.1468C9.07184 20.5958 8.65531 19.8339 8.53491 19.0008H3.99991C3.81886 19.0009 3.64121 18.9517 3.4859 18.8587C3.33058 18.7657 3.20344 18.6322 3.11803 18.4726C3.03262 18.313 2.99215 18.1332 3.00093 17.9523C3.00972 17.7715 3.06743 17.5964 3.16791 17.4458L4.99991 14.6978V10.0008C4.99991 6.77684 7.17991 4.06084 10.1459 3.24884ZM10.5859 19.0008C10.6892 19.2935 10.8807 19.5469 11.134 19.7261C11.3874 19.9054 11.6901 20.0016 12.0004 20.0016C12.3107 20.0016 12.6134 19.9054 12.8668 19.7261C13.1201 19.5469 13.3116 19.2935 13.4149 19.0008H10.5849H10.5859ZM11.9999 5.00084C10.6738 5.00084 9.40205 5.52762 8.46437 6.46531C7.52669 7.40299 6.99991 8.67476 6.99991 10.0008V15.0008C6.99995 15.1984 6.94149 15.3915 6.83191 15.5558L5.86891 17.0008H18.1299L17.1669 15.5558C17.0577 15.3914 16.9996 15.1983 16.9999 15.0008V10.0008C16.9999 8.67476 16.4731 7.40299 15.5354 6.46531C14.5978 5.52762 13.326 5.00084 11.9999 5.00084Z" fill="#111827"/>
</svg>
