<svg width="34" height="34" viewBox="0 0 34 34" fill="none" xmlns="http://www.w3.org/2000/svg">
<path fill-rule="evenodd" clip-rule="evenodd" d="M16.9999 0.333344C7.79492 0.333344 0.333252 7.79501 0.333252 17C0.333252 26.205 7.79492 33.6667 16.9999 33.6667C26.2049 33.6667 33.6666 26.205 33.6666 17C33.6666 7.79501 26.2049 0.333344 16.9999 0.333344ZM11.1666 12.8333C11.1666 12.0673 11.3175 11.3088 11.6106 10.601C11.9038 9.89329 12.3335 9.25023 12.8751 8.70855C13.4168 8.16688 14.0599 7.7372 14.7676 7.44405C15.4753 7.15089 16.2339 7.00001 16.9999 7.00001C17.766 7.00001 18.5245 7.15089 19.2322 7.44405C19.94 7.7372 20.583 8.16688 21.1247 8.70855C21.6664 9.25023 22.0961 9.89329 22.3892 10.601C22.6824 11.3088 22.8333 12.0673 22.8333 12.8333C22.8333 14.3804 22.2187 15.8642 21.1247 16.9581C20.0307 18.0521 18.547 18.6667 16.9999 18.6667C15.4528 18.6667 13.9691 18.0521 12.8751 16.9581C11.7812 15.8642 11.1666 14.3804 11.1666 12.8333ZM27.4299 25.3067C26.1823 26.876 24.5963 28.1433 22.7902 29.0137C20.9841 29.8841 19.0048 30.3352 16.9999 30.3333C14.9951 30.3352 13.0157 29.8841 11.2096 29.0137C9.40358 28.1433 7.81752 26.876 6.56992 25.3067C9.27159 23.3683 12.9583 22 16.9999 22C21.0416 22 24.7283 23.3683 27.4299 25.3067Z" fill="#111827"/>
</svg>
