<svg width="65" height="64" viewBox="0 0 65 64" fill="none" xmlns="http://www.w3.org/2000/svg">
<path d="M0.875 32C0.875 14.3269 15.2019 0 32.875 0C50.5481 0 64.875 14.3269 64.875 32C64.875 49.6731 50.5481 64 32.875 64C15.2019 64 0.875 49.6731 0.875 32Z" fill="#36725D"/>
<path d="M28.9861 18.3889L32.875 14.5M25.0972 39.7778L40.6528 24.2222M32.875 49.5L36.7639 45.6111M41.625 45.6111C42.9142 45.6111 44.1507 45.099 45.0623 44.1873C45.974 43.2757 46.4861 42.0392 46.4861 40.75C46.4861 39.4608 45.974 38.2243 45.0623 37.3127C44.1507 36.401 42.9142 35.8889 41.625 35.8889C40.3358 35.8889 39.0993 36.401 38.1877 37.3127C37.276 38.2243 36.7639 39.4608 36.7639 40.75C36.7639 42.0392 37.276 43.2757 38.1877 44.1873C39.0993 45.099 40.3358 45.6111 41.625 45.6111ZM24.125 28.1111C25.4142 28.1111 26.6507 27.599 27.5623 26.6873C28.474 25.7757 28.9861 24.5392 28.9861 23.25C28.9861 21.9608 28.474 20.7243 27.5623 19.8127C26.6507 18.901 25.4142 18.3889 24.125 18.3889C22.8358 18.3889 21.5993 18.901 20.6877 19.8127C19.776 20.7243 19.2639 21.9608 19.2639 23.25C19.2639 24.5392 19.776 25.7757 20.6877 26.6873C21.5993 27.599 22.8358 28.1111 24.125 28.1111ZM20.2361 49.5C21.5254 49.5 22.7618 48.9878 23.6734 48.0762C24.5851 47.1646 25.0972 45.9281 25.0972 44.6389C25.0972 43.3496 24.5851 42.1132 23.6734 41.2016C22.7618 40.2899 21.5254 39.7778 20.2361 39.7778C18.9469 39.7778 17.7104 40.2899 16.7988 41.2016C15.8872 42.1132 15.375 43.3496 15.375 44.6389C15.375 45.9281 15.8872 47.1646 16.7988 48.0762C17.7104 48.9878 18.9469 49.5 20.2361 49.5ZM45.5139 24.2222C46.8031 24.2222 48.0396 23.7101 48.9512 22.7984C49.8628 21.8868 50.375 20.6504 50.375 19.3611C50.375 18.0719 49.8628 16.8354 48.9512 15.9238C48.0396 15.0122 46.8031 14.5 45.5139 14.5C44.2246 14.5 42.9882 15.0122 42.0766 15.9238C41.1649 16.8354 40.6528 18.0719 40.6528 19.3611C40.6528 20.6504 41.1649 21.8868 42.0766 22.7984C42.9882 23.7101 44.2246 24.2222 45.5139 24.2222Z" stroke="#F9FAFB" stroke-width="2" stroke-linecap="round" stroke-linejoin="round"/>
</svg>
