<svg width="32" height="33" viewBox="0 0 32 33" fill="none" xmlns="http://www.w3.org/2000/svg">
<g id="upload">
<path id="Vector" fill-rule="evenodd" clip-rule="evenodd" d="M15.0575 3.55739C15.5782 3.0367 16.4224 3.0367 16.9431 3.55739L23.6098 10.2241C24.1305 10.7448 24.1305 11.589 23.6098 12.1097C23.0891 12.6304 22.2449 12.6304 21.7242 12.1097L17.3337 7.71915V20.5002C17.3337 21.2366 16.7367 21.8335 16.0003 21.8335C15.2639 21.8335 14.667 21.2366 14.667 20.5002V7.71915L10.2765 12.1097C9.75577 12.6304 8.91155 12.6304 8.39085 12.1097C7.87015 11.589 7.87015 10.7448 8.39085 10.2241L15.0575 3.55739ZM4.00033 19.1669C4.73671 19.1669 5.33366 19.7638 5.33366 20.5002V25.8335C5.33366 26.1872 5.47413 26.5263 5.72418 26.7763C5.97423 27.0264 6.31337 27.1669 6.66699 27.1669H25.3337C25.6873 27.1669 26.0264 27.0264 26.2765 26.7763C26.5265 26.5263 26.667 26.1872 26.667 25.8335V20.5002C26.667 19.7638 27.2639 19.1669 28.0003 19.1669C28.7367 19.1669 29.3337 19.7638 29.3337 20.5002V25.8335C29.3337 26.8944 28.9122 27.9118 28.1621 28.662C27.4119 29.4121 26.3945 29.8335 25.3337 29.8335H6.66699C5.60613 29.8335 4.58871 29.4121 3.83856 28.662C3.08842 27.9118 2.66699 26.8944 2.66699 25.8335V20.5002C2.66699 19.7638 3.26395 19.1669 4.00033 19.1669Z" fill="#798AA3"/>
</g>
</svg>
