<svg width="65" height="64" viewBox="0 0 65 64" fill="none" xmlns="http://www.w3.org/2000/svg">
<path d="M0.375 32C0.375 14.3269 14.7019 0 32.375 0C50.0481 0 64.375 14.3269 64.375 32C64.375 49.6731 50.0481 64 32.375 64C14.7019 64 0.375 49.6731 0.375 32Z" fill="#36725D"/>
<path d="M49.8209 19.1478C49.8042 18.8623 49.6833 18.5929 49.4811 18.3907C49.2789 18.1885 49.0095 18.0676 48.724 18.051C41.1745 17.6134 35.1127 19.9092 32.5076 24.209C30.7865 27.0518 30.7895 30.5042 32.4843 33.7977C31.5196 34.9461 30.8146 36.2895 30.4175 37.7358L28.0444 35.354C29.185 32.9721 29.1413 30.4897 27.8986 28.4272C25.9733 25.249 21.529 23.5454 16.0112 23.8692C15.7258 23.8859 15.4563 24.0068 15.2542 24.209C15.052 24.4112 14.931 24.6806 14.9144 24.966C14.5891 30.4838 16.2942 34.9281 19.4724 36.8534C20.5212 37.4942 21.7264 37.8333 22.9555 37.8336C24.1484 37.8189 25.3228 37.5362 26.3919 37.0065L30.0383 40.653V44.8347C30.0383 45.1442 30.1612 45.441 30.3801 45.6598C30.5989 45.8786 30.8957 46.0016 31.2051 46.0016C31.5146 46.0016 31.8114 45.8786 32.0302 45.6598C32.2491 45.441 32.372 45.1442 32.372 44.8347V40.5334C32.3668 38.677 32.9985 36.8751 34.1617 35.4284C35.6625 36.2127 37.3269 36.6324 39.0202 36.6536C40.6572 36.6589 42.2639 36.2116 43.6628 35.3613C47.9627 32.7592 50.2643 26.6974 49.8209 19.1478ZM20.6757 34.8581C18.4383 33.5031 17.1722 30.2957 17.2029 26.165C21.3335 26.13 24.5409 27.4004 25.8959 29.6378C26.6034 30.8047 26.7186 32.1656 26.2548 33.5672L22.6944 30.0069C22.4738 29.7973 22.18 29.6822 21.8758 29.6861C21.5715 29.6899 21.2808 29.8126 21.0656 30.0277C20.8504 30.2429 20.7278 30.5336 20.7239 30.8379C20.72 31.1421 20.8352 31.4359 21.0447 31.6565L24.6051 35.2169C23.2034 35.6807 21.844 35.5655 20.6757 34.8581ZM42.4536 33.3674C40.4992 34.5503 38.2019 34.6407 35.8682 33.6591L43.6993 25.8266C43.9089 25.606 44.024 25.3122 44.0201 25.008C44.0162 24.7037 43.8936 24.413 43.6784 24.1978C43.4632 23.9826 43.1725 23.86 42.8683 23.8561C42.564 23.8522 42.2702 23.9674 42.0496 24.177L34.2171 31.9993C33.2311 29.6656 33.3201 27.3669 34.5088 25.4138C36.5421 22.0591 41.3641 20.1892 47.5382 20.3336C47.6782 26.5063 45.8113 31.3342 42.4536 33.3674Z" fill="#F9FAFB"/>
</svg>
