<svg width="16" height="16" viewBox="0 0 16 16" fill="none" xmlns="http://www.w3.org/2000/svg">
<g id="icon-wrapper" clip-path="url(#clip0_2403_174)">
<g id="Union">
<path d="M16 7.99927C16 7.99927 13 2.49927 8 2.49927C3 2.49927 0 7.99927 0 7.99927C0 7.99927 3 13.4993 8 13.4993C13 13.4993 16 7.99927 16 7.99927ZM1.173 7.99927C1.65651 7.26439 2.21264 6.57995 2.833 5.95627C4.12 4.66727 5.88 3.49927 8 3.49927C10.12 3.49927 11.879 4.66727 13.168 5.95627C13.7884 6.57995 14.3445 7.26439 14.828 7.99927C14.77 8.08627 14.706 8.18227 14.633 8.28727C14.298 8.76727 13.803 9.40727 13.168 10.0423C11.879 11.3313 10.119 12.4993 8 12.4993C5.88 12.4993 4.121 11.3313 2.832 10.0423C2.21165 9.41858 1.65652 8.73414 1.173 7.99927Z" fill="white"/>
<path d="M8 5.49927C7.33696 5.49927 6.70107 5.76266 6.23223 6.2315C5.76339 6.70034 5.5 7.33623 5.5 7.99927C5.5 8.66231 5.76339 9.29819 6.23223 9.76703C6.70107 10.2359 7.33696 10.4993 8 10.4993C8.66304 10.4993 9.29893 10.2359 9.76777 9.76703C10.2366 9.29819 10.5 8.66231 10.5 7.99927C10.5 7.33623 10.2366 6.70034 9.76777 6.2315C9.29893 5.76266 8.66304 5.49927 8 5.49927ZM4.5 7.99927C4.5 7.07101 4.86875 6.18077 5.52513 5.52439C6.1815 4.86802 7.07174 4.49927 8 4.49927C8.92826 4.49927 9.8185 4.86802 10.4749 5.52439C11.1313 6.18077 11.5 7.07101 11.5 7.99927C11.5 8.92753 11.1313 9.81776 10.4749 10.4741C9.8185 11.1305 8.92826 11.4993 8 11.4993C7.07174 11.4993 6.1815 11.1305 5.52513 10.4741C4.86875 9.81776 4.5 8.92753 4.5 7.99927Z" fill="white"/>
</g>
</g>
<defs>
<clipPath id="clip0_2403_174">
<rect width="16" height="16" fill="white"/>
</clipPath>
</defs>
</svg>
