<svg width="142" height="159" viewBox="0 0 142 159" fill="none" xmlns="http://www.w3.org/2000/svg">
<g id="Group">
<path id="Vector" d="M106.417 123.75C125.885 104.282 125.885 72.7181 106.417 53.25C86.9487 33.782 55.3848 33.782 35.9167 53.25C16.4487 72.718 16.4487 104.282 35.9168 123.75C55.3848 143.218 86.9487 143.218 106.417 123.75Z" fill="#8BC7B2"/>
<g id="Group_2">
<g id="Group_3">
<path id="Vector_2" d="M60.5642 35.49C60.5642 35.49 68.46 65.6839 62.7441 85.6136C65.1008 86.1323 66.3995 85.6136 66.3995 85.6136C66.3995 85.6136 69.7785 47.3657 60.5642 35.49Z" fill="#347A34"/>
<path id="Vector_3" d="M75.1112 51.0879C75.1112 51.0879 67.8559 73.6564 68.0208 84.9406C66.5367 89.1511 64.2031 84.9406 64.2031 84.9406C64.2031 84.9406 66.3995 62.2037 75.1112 51.0879Z" fill="#347A34"/>
<path id="Vector_4" d="M75.1112 59.509C75.1112 59.509 70.6742 78.3049 71.3701 87.5148C70.4421 91.0281 68.4363 87.7041 68.4363 87.7041C68.4363 87.7041 68.9765 69.0208 75.1112 59.509Z" fill="#347A34"/>
<path id="Vector_5" d="M76.3958 83.8457C76.3958 83.8457 84.1801 74.4983 89.6216 72.8141C90.9408 71.3825 89.6216 71.4668 89.6216 71.4668C89.6216 71.4668 77.5843 77.7826 74.3689 84.2668C75.0285 85.951 76.3958 83.8457 76.3958 83.8457Z" fill="#347A34"/>
<path id="Vector_6" d="M77.0373 73.2533C77.0373 73.2533 72.5647 78.0869 72.1287 87.2855C70.1638 87.7193 69.8564 86.3214 69.8564 86.3214C69.8564 86.3214 73.8739 70.9796 80.1399 70.4231C78.1612 71.8035 77.0373 73.2533 77.0373 73.2533Z" fill="#347A34"/>
<g id="Group_4">
<path id="Vector_7" d="M65.1032 81.2912C65.1032 81.2912 64.4476 72.1305 56.8057 65.6139C53.0382 62.4011 53.8911 59.9482 50.7884 59.0839C47.6858 58.2195 43.1723 55.5308 41.9501 54.2818C40.7279 53.0335 22.3732 48.6532 17.6724 50.3819C22.9378 51.7265 28.0112 59.4645 30.6443 59.6565C33.2766 59.8485 36.6669 62.9488 40.4278 65.6375C44.1887 68.3262 47.1212 66.6702 49.5662 67.9186C52.0113 69.1669 60.9433 74.0687 65.1032 81.2912Z" fill="#347A34"/>
<g id="Group_5">
<path id="Vector_8" d="M60.4463 73.9616C59.3019 72.4519 58.0876 70.9994 56.8496 69.5786C56.2243 68.8746 55.5806 68.1861 54.8933 67.5575C54.2073 66.9398 53.4501 66.38 52.6837 65.8551C51.9127 65.333 51.1047 64.877 50.2723 64.4539C49.4406 64.0295 48.5838 63.6199 47.7778 63.1038C46.9678 62.606 46.2152 61.9774 45.5134 61.3751C44.7978 60.8052 43.9938 60.3262 43.1785 59.8782C39.8866 58.1165 36.3954 56.7301 32.9366 55.2978L22.51 51.0886C26.0256 52.3848 29.5583 53.6311 33.056 54.9819C36.5551 56.3265 40.0515 57.6988 43.3955 59.4612C44.2266 59.9119 45.0484 60.3909 45.8109 60.9898C46.5457 61.6069 47.2481 62.1829 48.033 62.6855C48.8074 63.1914 49.643 63.601 50.4781 64.0362C51.3151 64.4707 52.1409 64.947 52.9231 65.4866C53.7001 66.0337 54.4679 66.5895 55.1558 67.2665C55.8398 67.9348 56.4644 68.6516 57.0712 69.3819C58.2901 70.8371 59.3791 72.3946 60.4463 73.9616Z" fill="#2A6B2A"/>
<path id="Vector_9" d="M51.6946 60.8052C52.7011 61.8184 53.6093 62.9401 54.3745 64.1648C54.7616 64.7739 55.0954 65.4206 55.3678 66.0963C55.6402 66.7713 55.84 67.4868 55.8961 68.2285L55.906 68.3626L55.7761 68.3828C55.0624 68.4926 54.3481 68.593 53.6285 68.6604C52.9095 68.7223 52.1873 68.7702 51.4637 68.75C50.7408 68.7358 50.0179 68.6711 49.3063 68.5364C48.6051 68.3808 47.8822 68.1834 47.3044 67.7361C47.9073 68.1423 48.6302 68.2871 49.33 68.3942C50.0358 68.4987 50.7507 68.5371 51.4644 68.5236C52.1781 68.5081 52.8917 68.4697 53.6027 68.3942C54.3144 68.3195 55.0215 68.2097 55.7279 68.0945L55.6085 68.2481C55.5155 66.8394 54.8876 65.5115 54.1858 64.2834C53.831 63.665 53.4332 63.0715 53.0151 62.4934C52.6022 61.91 52.1649 61.3428 51.6946 60.8052Z" fill="#2A6B2A"/>
<path id="Vector_10" d="M47.0958 58.4128C47.9282 59.2226 48.6141 60.1793 49.2242 61.1756C49.833 62.1754 50.3257 63.2465 50.7452 64.3433L50.8059 64.5023L50.6404 64.5346C49.2658 64.8054 47.8569 64.9166 46.4586 64.8169C45.0682 64.7024 43.6627 64.4214 42.4233 63.7606C43.7115 64.3009 45.0979 64.5191 46.4718 64.5818C47.1611 64.6081 47.851 64.6 48.5389 64.5441C49.2269 64.4861 49.9076 64.3736 50.5869 64.2523L50.4821 64.4437C50.0909 63.3516 49.5943 62.3027 49.0422 61.2848C48.475 60.2769 47.8457 59.2981 47.0958 58.4128Z" fill="#2A6B2A"/>
<path id="Vector_11" d="M38.4675 53.1243C39.4325 53.9819 40.3157 54.9372 41.1157 55.9632C41.9118 56.9905 42.6136 58.1143 43.0562 59.37L43.1143 59.5351L42.9414 59.5586C41.6836 59.7291 40.4199 59.8443 39.1541 59.911C37.8884 59.9703 36.6207 59.9938 35.355 59.9339C36.6194 59.8658 37.8805 59.787 39.139 59.6779C40.3981 59.5789 41.6533 59.4434 42.9032 59.2737L42.7884 59.4623C42.3861 58.2463 41.6889 57.1455 40.9469 56.0959C40.189 55.0524 39.3547 54.0641 38.4675 53.1243Z" fill="#2A6B2A"/>
<path id="Vector_12" d="M30.8283 52.0989C31.8144 52.5752 32.7649 53.1316 33.6612 53.7764C34.1091 54.0984 34.5457 54.4426 34.9382 54.8428C35.326 55.2416 35.7086 55.6802 35.8959 56.2569L35.9322 56.3687L35.8279 56.4219C35.2726 56.7042 34.6888 56.8234 34.1091 56.9285C33.528 57.0276 32.9449 57.103 32.3605 57.1589C31.1911 57.2519 30.0204 57.3004 28.8496 57.2674C30.0157 57.165 31.1799 57.0646 32.3361 56.9157C32.9146 56.8463 33.4911 56.7648 34.0609 56.6564C34.6262 56.5432 35.1994 56.4098 35.7006 56.1727L35.6327 56.337C35.483 55.8452 35.1308 55.4114 34.7601 55.0247C34.3828 54.6373 33.9686 54.2809 33.5418 53.9421C32.6791 53.2731 31.7649 52.6668 30.8283 52.0989Z" fill="#2A6B2A"/>
</g>
<path id="Vector_13" d="M62.8209 38.0198C62.8209 38.0198 59.624 25.5351 51.3502 23.615C43.0765 21.6944 40.4434 18.429 35.178 16.7003C29.9126 14.9717 24.8352 19.197 24.8352 19.197C24.8352 19.197 31.1348 19.2934 37.199 23.7585C43.2631 28.2237 54.5934 36.4353 62.8209 38.0198Z" fill="#5CAA2E"/>
<path id="Vector_14" d="M62.8209 38.0198C62.8209 38.0198 58.9255 29.8999 50.6517 27.9792C42.378 26.0585 40.4718 21.3211 35.2064 19.5925C29.941 17.8638 24.8352 19.197 24.8352 19.197C24.8352 19.197 31.1348 19.2933 37.199 23.7585C43.2631 28.2237 54.5934 36.4353 62.8209 38.0198Z" fill="#347A34"/>
<path id="Vector_15" d="M87.0789 73.7446C87.0789 73.7446 89.7112 68.2708 94.4127 65.1018C99.1142 61.9328 102.593 62.653 105.319 61.1406C108.046 59.6281 114.91 58.0915 118.107 59.1478C121.304 60.2041 126.727 60.3005 128.905 66.7342C126.756 65.3895 123.278 67.1182 119.517 68.4628C115.756 69.8075 111.322 67.1182 107.992 68.4628C104.662 69.8075 101.653 73.0722 98.08 73.2649C94.5064 73.4562 87.0789 73.7446 87.0789 73.7446Z" fill="#347A34"/>
<path id="Vector_16" d="M76.125 73.7445C76.125 73.7445 75.7022 66.3979 81.7663 62.7964C87.8305 59.1949 93.613 56.6026 96.0106 52.425C98.4081 48.2475 106.306 46.2312 113.922 49.6878C108.281 49.3995 101.088 54.8739 93.4719 61.7879C85.8564 68.7026 76.125 73.7445 76.125 73.7445Z" fill="#3AA33A"/>
<path id="Vector_17" d="M76.125 73.7446C76.125 73.7446 75.7022 66.3981 81.7663 62.7965C87.8305 59.195 93.7647 60.093 96.1623 55.9155C98.5598 51.738 106.306 46.2306 113.922 49.688C108.281 49.3996 101.088 54.874 93.4719 61.788C85.8564 68.7027 76.125 73.7446 76.125 73.7446Z" fill="#347A34"/>
<path id="Vector_18" d="M70.9412 73.7445C70.9412 73.7445 71.9074 56.643 79.0408 53.2988C86.1741 49.9546 85.6854 43.1174 93.3365 39.4498C100.988 35.7823 107.029 29.7798 116.755 30.8294C108.055 33.7821 105.652 37.9266 102.013 42.8816C98.373 47.8359 94.1055 50.1864 92.5417 52.1199C90.9785 54.0527 86.1912 60.5227 83.2311 61.5393C80.2715 62.5566 72.627 69.5266 70.9412 73.7445Z" fill="#3AA33A"/>
<path id="Vector_19" d="M70.9412 73.7444C70.9412 73.7444 74.0511 58.9785 81.1844 55.635C88.3177 52.2909 87.3693 45.5762 95.0204 41.9087C102.671 38.2411 107.029 29.7803 116.755 30.8299C108.055 33.7827 105.652 37.9272 102.013 42.8822C98.373 47.8365 94.1055 50.1869 92.5417 52.1204C90.9785 54.0532 86.1912 60.5233 83.2311 61.5399C80.2715 62.5565 72.627 69.5264 70.9412 73.7444Z" fill="#347A34"/>
<path id="Vector_20" d="M60.5637 74.5053C60.5637 74.5053 53.6527 65.3041 45.5201 66.2715C37.3875 67.2389 39.1268 72.5307 31.2284 70.3527C23.3306 68.1746 10.9193 76.0493 9.79077 82.1954C16.7487 76.6253 21.6374 75.6653 32.1683 77.2013C42.6997 78.738 54.3584 73.3458 60.5637 74.5053Z" fill="#3AA33A"/>
<path id="Vector_21" d="M60.5635 74.5051C60.5635 74.5051 53.9737 69.4558 45.8418 70.4232C37.7092 71.3906 39.3113 74.8237 31.4135 72.6457C23.5157 70.4677 10.9198 76.0492 9.79126 82.1959C16.7491 76.6258 21.6379 75.6658 32.1687 77.2018C42.6996 78.7378 54.3582 73.3457 60.5635 74.5051Z" fill="#347A34"/>
<path id="Vector_22" d="M62.744 85.6142C62.744 85.6142 64.4754 76.8562 55.4062 71.8878C59.4462 71.7194 64.0942 76.8562 65.4391 84.351C65.9595 87.8036 62.744 85.6142 62.744 85.6142Z" fill="#347A34"/>
<path id="Vector_23" d="M60.5637 53.769C60.5637 53.769 54.1704 45.5103 56.6148 33.2176C59.0592 20.9255 59.8118 21.3095 63.0081 15.7395C66.2051 10.1701 68.4622 3.25539 75.0434 2.67938C81.6247 2.10338 80.6848 -1.92998 87.0781 1.14271C83.6931 0.950705 77.1119 4.16756 77.1119 9.06525C77.1119 13.963 75.7017 17.4203 73.8681 19.5808C72.0344 21.7413 72.7395 26.7832 70.7654 30.2405C68.7906 33.6979 65.5468 43.3491 63.4316 46.1584C61.3163 48.9677 61.8802 54.7297 62.0214 55.1615C62.1625 55.594 60.5637 53.769 60.5637 53.769Z" fill="#3AA33A"/>
<path id="Vector_24" d="M75.2316 50.3084C75.2316 50.3084 71.6587 35.331 74.4797 26.1116C77.3001 16.8922 81.6256 15.9322 85.9504 10.9382C90.2753 5.94413 93.8482 8.05681 93.8482 8.05681C93.8482 8.05681 91.4038 11.5142 91.0278 21.1176C90.6519 30.7209 86.6416 37.7603 80.685 42.821C74.729 47.8831 75.2316 50.3084 75.2316 50.3084Z" fill="#5CAA2E"/>
<path id="Vector_25" d="M59.624 57.4285C59.624 57.4285 55.1112 41.6689 46.0849 38.0196C37.0585 34.3702 36.4946 35.9069 30.1013 35.5229C23.708 35.1389 15.9976 38.2116 12.4253 41.0929C21.8276 38.2116 31.6058 42.7987 37.8118 46.4595C44.0164 50.1196 59.624 57.4285 59.624 57.4285Z" fill="#3AA33A"/>
<path id="Vector_26" d="M59.624 57.4283C59.624 57.4283 52.8541 46.9896 43.8284 43.3402C34.8021 39.6909 35.5817 36.7347 29.1885 36.3507C22.7952 35.9667 15.9976 38.2121 12.4253 41.0928C21.8276 38.2115 31.6058 42.7986 37.8118 46.4594C44.0164 50.1195 59.624 57.4283 59.624 57.4283Z" fill="#347A34"/>
</g>
</g>
<g id="Group_6">
<path id="Vector_27" d="M73.8374 50.8418C75.2225 47.212 76.448 43.4474 77.1287 39.6215C77.2171 39.1432 77.2778 38.6636 77.3365 38.1839C77.4057 37.7009 77.4506 37.1808 77.5502 36.6849C77.7263 35.6832 78.0165 34.6875 78.4393 33.7584C79.2901 31.8883 80.5453 30.3792 81.1468 28.5515C81.4766 27.6596 81.6402 26.6888 81.9113 25.722C82.1626 24.7607 82.4574 23.8142 82.7668 22.873C83.3901 20.9928 84.109 19.1462 84.9467 17.3555C85.787 15.5683 86.7414 13.8288 87.9088 12.2416C89.075 10.6726 90.4785 9.20125 92.2601 8.39282C90.5023 9.25379 89.1554 10.7521 88.0414 12.3413C86.928 13.948 86.0297 15.7003 85.2461 17.4963C84.4652 19.2958 83.803 21.1477 83.2377 23.028C82.958 23.9684 82.6922 24.9143 82.4706 25.8689C82.3486 26.3452 82.2615 26.8222 82.1534 27.3045L81.9845 28.0436L81.7708 28.7725C81.1752 30.7376 79.9154 32.3579 79.1938 34.0993C78.8251 34.9744 78.5831 35.8961 78.4446 36.8426C78.3628 37.3175 78.337 37.7851 78.2803 38.2809C78.2335 38.7828 78.1834 39.2854 78.1062 39.7805C77.8272 41.7706 77.3668 43.7128 76.853 45.6355C76.328 47.5582 75.7416 49.4466 75.0662 51.3336L73.8374 50.8418Z" fill="#347A34"/>
<path id="Vector_28" d="M74.4517 30.7083C74.912 32.3204 75.3922 33.9251 75.8895 35.5224C76.1487 36.3174 76.3994 37.1143 76.681 37.8992C76.966 38.6793 77.2654 39.4662 77.6697 40.1641L77.4329 40.1169C78.1057 39.6245 78.7831 39.1388 79.4691 38.6665C80.1577 38.1983 80.8436 37.7247 81.5553 37.2915C82.9681 36.4117 84.4166 35.5824 85.9389 34.9195C85.2001 35.2981 84.4891 35.7272 83.7847 36.1658C83.077 36.5976 82.3798 37.0483 81.6912 37.5111C80.3127 38.4348 78.952 39.3867 77.6269 40.3891L77.4798 40.501L77.3901 40.3426C76.9653 39.5888 76.6791 38.7979 76.3987 38.0043C76.1283 37.208 75.8704 36.409 75.6481 35.5992C75.191 33.9824 74.796 32.3514 74.4517 30.7083Z" fill="#347A34"/>
<path id="Vector_29" d="M77.7498 23.0173C77.8777 24.6914 78.0921 26.3561 78.3539 28.0087C78.6323 29.6579 78.9574 31.301 79.4475 32.8929L79.2239 32.7939C80.8959 31.9545 82.5396 31.049 84.1147 30.0311C84.9062 29.5285 85.6832 29.001 86.4225 28.423C87.1547 27.8443 87.9132 27.2562 88.4125 26.4424C87.9607 27.2878 87.2325 27.9346 86.5274 28.5584C85.8012 29.1667 85.0374 29.7259 84.2578 30.2595C83.4769 30.7903 82.6709 31.2821 81.8543 31.7537C81.0358 32.2212 80.212 32.6807 79.3631 33.0903L79.1916 33.1731L79.1395 32.9913C78.6718 31.3697 78.3269 29.7165 78.1152 28.0464C77.8922 26.3777 77.7695 24.6975 77.7498 23.0173Z" fill="#347A34"/>
<path id="Vector_30" d="M81.5964 17.0103C81.5186 18.462 81.5358 19.9152 81.6248 21.3582C81.7376 22.7965 81.9124 24.2416 82.3774 25.5923L82.1465 25.5034C82.8232 25.0945 83.4973 24.6761 84.1332 24.1978C84.7703 23.7229 85.389 23.2196 85.9879 22.6921C86.5908 22.1687 87.1758 21.623 87.7417 21.0557C88.3136 20.4946 88.8729 19.9186 89.4019 19.3122C88.4316 20.6003 87.34 21.7934 86.1627 22.8936C85.5783 23.4493 84.9504 23.9553 84.3139 24.4491C83.6728 24.9375 83.0033 25.3902 82.3042 25.7917L82.1333 25.8894L82.0733 25.7022C81.6208 24.2948 81.4309 22.8296 81.3827 21.371C81.3339 19.9118 81.4085 18.4526 81.5964 17.0103Z" fill="#347A34"/>
<path id="Vector_31" d="M85.1145 12.6311C84.9588 13.4186 84.8797 14.2163 84.879 15.0085C84.8942 15.7988 84.9826 16.5897 85.2609 17.3125L85.0888 17.2122C85.5604 17.1179 86.0254 16.9407 86.4818 16.7467C86.9382 16.5499 87.3815 16.3148 87.8181 16.0682C88.7013 15.5899 89.5521 15.0456 90.4056 14.4986C89.6418 15.1722 88.8174 15.7712 87.9553 16.3128C87.52 16.5762 87.0735 16.8235 86.6078 17.0377C86.1434 17.2526 85.662 17.4459 85.1409 17.5295L85.011 17.5504L84.9681 17.4291C84.6924 16.6456 84.5954 15.8149 84.6488 15.0032C84.695 14.1907 84.8461 13.389 85.1145 12.6311Z" fill="#347A34"/>
</g>
<g id="Group_7">
<path id="Vector_32" d="M61.5797 55.662C61.3871 55.4653 61.3132 55.3454 61.2057 55.1905C61.1054 55.0429 61.0302 54.8947 60.9425 54.7458C60.7948 54.446 60.6536 54.1456 60.5488 53.8391C60.3192 53.2294 60.1721 52.6096 60.0521 51.9891C59.8344 50.7475 59.7421 49.5025 59.7566 48.2683C59.7672 45.7973 60.1062 43.368 60.5699 40.9804C61.0507 38.603 61.5652 36.2161 62.4767 33.9283C62.9252 32.7884 63.4773 31.7011 63.9726 30.6238C64.4765 29.5473 64.8696 28.4397 65.1592 27.2884C65.6407 24.9426 66.3055 22.576 67.1168 20.309C67.9261 18.032 68.8594 15.7994 69.9589 13.653C71.0598 11.51 72.3169 9.44113 73.83 7.57434C75.3411 5.72103 77.1398 4.04895 79.2933 3.03101C77.1628 4.0988 75.4136 5.80188 73.9533 7.67742C72.4917 9.56576 71.2893 11.6481 70.2432 13.8005C69.1991 15.9557 68.3212 18.193 67.5686 20.47C66.8121 22.7565 66.2106 25.0511 65.7851 27.442C65.5206 28.6365 65.1374 29.8188 64.652 30.9351C64.1738 32.0561 63.6672 33.1293 63.2649 34.2422C62.4582 36.458 62.0025 38.8219 61.5731 41.1724C61.1661 43.5229 60.8871 45.903 60.9267 48.2616C60.9359 49.4406 61.0507 50.6094 61.2717 51.7378C61.3924 52.2977 61.5368 52.8514 61.7426 53.3641C61.8376 53.6268 61.9589 53.8667 62.0803 54.1038C62.1489 54.2109 62.2115 54.3308 62.2821 54.4292C62.3435 54.5215 62.445 54.6455 62.4628 54.6616L61.5797 55.662Z" fill="#347A34"/>
<path id="Vector_33" d="M58.3325 28.7437C58.8114 30.5774 59.312 32.4045 59.8337 34.2221C60.1074 35.1268 60.368 36.0356 60.6674 36.9296C60.9741 37.8148 61.2854 38.7223 61.7439 39.5038L61.5064 39.462C62.7101 38.5404 63.898 37.5986 65.0879 36.6595L66.8655 35.2407C67.4597 34.7698 68.052 34.2955 68.6252 33.7963C67.5508 34.8762 66.4064 35.8807 65.2469 36.8622C64.0873 37.8445 62.8961 38.787 61.7063 39.7294L61.5592 39.846L61.4688 39.6877C60.9801 38.8328 60.6879 37.9294 60.3845 37.028C60.0956 36.1225 59.8278 35.2117 59.5917 34.2928C59.1102 32.457 58.6946 30.6057 58.3325 28.7437Z" fill="#347A34"/>
<path id="Vector_34" d="M61.4709 22.3599C61.6339 24.0313 61.8819 25.6906 62.178 27.3371C62.49 28.9802 62.8495 30.6159 63.3719 32.1964L63.1463 32.102C64.8005 31.2269 66.425 30.2864 67.979 29.2348C68.7599 28.7154 69.5257 28.1711 70.2532 27.5776C70.9728 26.9834 71.7195 26.3791 72.2023 25.5545C71.7676 26.4094 71.0533 27.0723 70.3614 27.7103C69.6477 28.3341 68.8958 28.9094 68.1274 29.4592C67.357 30.0069 66.5616 30.5155 65.7549 31.0046C64.9463 31.4897 64.1317 31.9666 63.292 32.3944L63.1225 32.4806L63.0665 32.3001C62.5658 30.6893 62.1873 29.0435 61.9406 27.3788C61.682 25.7162 61.525 24.0394 61.4709 22.3599Z" fill="#347A34"/>
<path id="Vector_35" d="M65.1944 16.2717C65.1462 17.7249 65.1937 19.1773 65.3118 20.6184C65.4542 22.054 65.6587 23.495 66.1514 24.8356L65.9186 24.7514C66.5867 24.3283 67.2516 23.8958 67.8775 23.4034C68.5048 22.9143 69.1129 22.3982 69.7013 21.8579C70.2929 21.3217 70.8667 20.7632 71.4208 20.1845C71.9808 19.6112 72.5282 19.0231 73.0447 18.406C72.1015 19.7149 71.0343 20.9309 69.88 22.056C69.3068 22.6239 68.6895 23.1433 68.0635 23.6506C67.433 24.1525 66.7727 24.6194 66.0815 25.0357L65.9127 25.1374L65.8487 24.9515C65.3672 23.5543 65.1475 22.0937 65.0697 20.6365C64.9906 19.178 65.0354 17.7168 65.1944 16.2717Z" fill="#347A34"/>
<path id="Vector_36" d="M68.6205 11.8179C68.4807 12.6088 68.4181 13.4078 68.4339 14.1994C68.4655 14.9889 68.5698 15.7778 68.8633 16.4946L68.6885 16.3983C69.1581 16.2938 69.6198 16.1066 70.0716 15.9031C70.5241 15.697 70.962 15.4524 71.3934 15.1957C72.2667 14.6986 73.1063 14.136 73.948 13.5708C73.1987 14.2607 72.3867 14.8771 71.5359 15.4376C71.1058 15.7104 70.6646 15.9671 70.2035 16.1914C69.7438 16.4164 69.2663 16.6199 68.7472 16.7149L68.6179 16.7385L68.5724 16.6179C68.2809 15.8404 68.1661 15.0118 68.2037 14.1994C68.2334 13.3862 68.3686 12.5812 68.6205 11.8179Z" fill="#347A34"/>
</g>
<path id="Vector_37" d="M70.9948 50.3966C70.9948 50.3966 77.2885 43.8888 79.0371 48.2138C80.7856 52.5389 73.4425 62.5391 61.3795 64.5925C49.3165 66.6459 51.7642 73.2527 51.7642 73.2527C51.7642 73.2527 45.9368 68.9674 51.5604 57.7175C57.1833 46.4683 67.1488 45.7535 70.9948 50.3966Z" fill="#388C38"/>
<g id="Group_8">
<path id="Vector_38" d="M71.1333 50.7333C70.9776 50.6996 70.6584 50.7137 70.4071 50.7757C70.1393 50.8283 69.8728 50.9226 69.6097 51.0257C69.0847 51.2453 68.5801 51.537 68.0933 51.8597C67.1198 52.5105 66.2307 53.3088 65.391 54.1529C64.9603 54.5659 64.5731 55.0193 64.1563 55.4538C63.7421 55.9058 63.2975 56.3289 62.8272 56.7176C61.884 57.4924 60.8446 58.1263 59.78 58.6828C57.6654 59.8024 55.3826 60.6378 53.6308 62.2863C52.7581 63.0961 52.0616 64.1046 51.5887 65.2135C51.1099 66.3224 50.8183 67.5114 50.6521 68.7146C50.7913 67.5081 51.0551 66.3089 51.5122 65.1798C51.9633 64.0507 52.6467 63.0085 53.5166 62.1624C55.2652 60.4404 57.5605 59.5404 59.625 58.3823C60.6658 57.807 61.6664 57.1623 62.5634 56.3902C63.4637 55.631 64.1893 54.675 65.0395 53.7938C65.8758 52.9147 66.7656 52.0759 67.7701 51.3699C68.2734 51.0189 68.801 50.6962 69.3735 50.4409C69.6631 50.3196 69.9586 50.2071 70.2745 50.1364C70.601 50.067 70.8873 50.0044 71.3186 50.0852L71.1333 50.7333Z" fill="#207A20"/>
<path id="Vector_39" d="M50.8716 60.8358C51.3201 60.5872 51.8102 60.4276 52.2989 60.2787C52.7923 60.1419 53.2955 60.0442 53.8008 59.9647C54.8139 59.8138 55.8408 59.7903 56.8619 59.8246L57.0914 59.832L57.0063 60.0517C56.6158 61.0581 56.2564 62.0768 55.9101 63.1008C55.5645 64.1248 55.236 65.1555 54.9385 66.1997C55.0988 65.1225 55.3692 64.0668 55.6647 63.0206C55.9701 61.9771 56.3223 60.9483 56.7022 59.9311L56.8467 60.1581C56.3441 60.1338 55.8402 60.119 55.3369 60.1298C54.8337 60.1406 54.3317 60.1743 53.8298 60.2167C52.8305 60.3198 51.8273 60.4842 50.8716 60.8358Z" fill="#207A20"/>
<path id="Vector_40" d="M54.2107 55.4668C55.7422 55.2708 57.2856 55.165 58.833 55.163C59.6067 55.1603 60.3817 55.2007 61.1554 55.2788C61.9264 55.3657 62.708 55.4654 63.454 55.7679L63.5628 55.8124L63.5549 55.9289C63.5107 56.5993 63.4501 57.2682 63.3551 57.9332C63.2542 58.5967 63.1374 59.2603 62.9521 59.9064C62.774 60.5531 62.5708 61.1952 62.2945 61.8055C62.0115 62.4105 61.6929 63.0074 61.2596 63.5093C61.654 62.9757 61.9238 62.3626 62.1579 61.7469C62.3914 61.1285 62.5755 60.4911 62.7212 59.8464C62.8709 59.2024 62.9705 58.5469 63.0655 57.8921C63.1499 57.2352 63.2007 56.5743 63.235 55.9121L63.3366 56.0724C62.6381 55.8104 61.8783 55.681 61.1217 55.5908C60.3626 55.5005 59.5961 55.4594 58.8284 55.4365C57.2936 55.386 55.7521 55.4068 54.2107 55.4668Z" fill="#207A20"/>
<path id="Vector_41" d="M60.3333 49.7403C60.9843 49.6629 61.6452 49.743 62.2968 49.8084C62.9498 49.8879 63.5968 50.0139 64.2373 50.1668C65.5235 50.4605 66.7661 50.9321 67.9665 51.4872L68.0167 51.5101L68.0411 51.5613C68.3841 52.2795 68.6855 53.0212 68.888 53.7939C69.1116 54.5599 69.2402 55.3535 69.3061 56.1478C69.417 57.737 69.2428 59.3592 68.6802 60.8353C68.9111 60.0807 69.0232 59.2972 69.0766 58.5158C69.136 57.735 69.132 56.9481 69.0384 56.1727C68.95 55.3986 68.8233 54.6252 68.5918 53.8815C68.3874 53.129 68.0714 52.4169 67.7555 51.7082L67.83 51.7823C66.6593 51.2076 65.4305 50.7637 64.1786 50.4019C63.5527 50.2193 62.9155 50.0792 62.2744 49.9566C61.6353 49.8427 60.9849 49.7127 60.3333 49.7403Z" fill="#207A20"/>
<path id="Vector_42" d="M70.2032 50.218C70.9215 50.4296 71.5864 50.7381 72.2222 51.112C72.8534 51.4899 73.4404 51.9514 73.9338 52.5052C74.4285 53.0589 74.7866 53.7333 74.9924 54.4441C75.2266 55.1575 75.1784 55.9174 75.1118 56.645C75.152 55.9134 75.1705 55.1602 74.9139 54.4683C74.6857 53.7784 74.3137 53.1384 73.8137 52.619C73.3144 52.1003 72.7287 51.6752 72.1021 51.3316C71.4762 50.9934 70.8034 50.7152 70.1267 50.5441L70.2032 50.218Z" fill="#207A20"/>
</g>
<g id="Group_9">
<path id="Vector_43" d="M86.7361 73.7446C88.1383 72.5548 89.5604 71.3799 91.0728 70.3283C91.8274 69.8008 92.5958 69.2895 93.4024 68.8334C94.2117 68.3679 95.0751 68.0297 95.9398 67.7144C96.8085 67.4032 97.7035 67.1606 98.6012 66.968C99.4996 66.7726 100.394 66.617 101.259 66.3731C102.126 66.1339 102.966 65.8106 103.786 65.4299C104.628 65.0284 105.522 64.7488 106.409 64.5124C109.977 63.609 113.647 63.229 117.307 63.2822C119.136 63.32 120.969 63.4587 122.767 63.8158C124.56 64.1782 126.336 64.7205 127.933 65.628C126.304 64.7825 124.523 64.3123 122.733 64.0199C120.936 63.743 119.121 63.615 117.304 63.6258C115.488 63.6319 113.675 63.7653 111.871 63.9761C110.07 64.1924 108.275 64.5043 106.527 64.9732C105.653 65.2137 104.797 65.4879 103.989 65.8806C103.155 66.2842 102.279 66.6102 101.383 66.8474C100.488 67.0906 99.5807 67.2394 98.6949 67.4247C97.8071 67.6073 96.9345 67.835 96.0797 68.1328C95.2262 68.4366 94.3799 68.764 93.5812 69.179C92.7785 69.598 92.0002 70.0784 91.2337 70.5762C89.7088 71.5861 88.1964 72.6289 86.7361 73.7446Z" fill="#2A6B2A"/>
<path id="Vector_44" d="M98.6082 63.4514C98.0139 63.8422 97.4447 64.2686 96.8933 64.7166C96.3393 65.1599 95.8004 65.6234 95.2971 66.1226C94.2998 67.1149 93.3474 68.2231 92.8897 69.5557L92.8145 69.3751C93.4655 69.679 94.1178 69.9781 94.784 70.2442C95.4495 70.511 96.1275 70.742 96.8109 70.9522C97.4955 71.1597 98.194 71.3174 98.9017 71.4097C99.6042 71.4972 100.339 71.5545 101.026 71.3275C100.353 71.601 99.6048 71.5943 98.8879 71.5532C98.1669 71.4892 97.4526 71.3544 96.7528 71.1712C96.0504 70.9933 95.367 70.7508 94.6903 70.4948C94.0149 70.2341 93.352 69.9431 92.6938 69.6419L92.5737 69.5873L92.6186 69.4614C92.8666 68.7614 93.2458 68.1268 93.6851 67.5508C94.1244 66.9735 94.6151 66.4419 95.1474 65.9602C96.2047 64.9867 97.3735 64.1534 98.6082 63.4514Z" fill="#2A6B2A"/>
<path id="Vector_45" d="M103.665 62.3997C102.711 63.0484 101.848 63.8205 101.039 64.637C100.241 65.4676 99.4879 66.3427 98.8257 67.2886L98.7749 67.0757C99.3975 67.3782 100.025 67.6719 100.672 67.9151C101.32 68.157 101.984 68.353 102.655 68.5154C103.995 68.8293 105.388 68.9971 106.771 68.828C105.404 69.1264 103.976 69.0146 102.606 68.7458C101.232 68.4608 99.9034 67.969 98.6496 67.3337L98.4985 67.2569L98.5988 67.1202C99.29 66.1777 100.045 65.2797 100.893 64.482C101.74 63.6877 102.651 62.9534 103.665 62.3997Z" fill="#2A6B2A"/>
<path id="Vector_46" d="M113.362 59.6558C112.261 60.3193 111.2 61.0449 110.196 61.8425C109.206 62.651 108.247 63.5221 107.542 64.5845L107.48 64.3716C108.64 64.8762 109.814 65.3491 111.002 65.7877C112.186 66.2363 113.381 66.6554 114.582 67.0663C113.346 66.7793 112.131 66.4108 110.926 66.0086C109.724 65.5997 108.536 65.1436 107.369 64.6363L107.208 64.5663L107.307 64.4228C108.062 63.3334 109.031 62.4415 110.067 61.6687C111.108 60.8994 112.208 60.2196 113.362 59.6558Z" fill="#2A6B2A"/>
<path id="Vector_47" d="M120.993 60.7505C119.942 61.0422 118.903 61.377 117.897 61.788C117.396 61.9982 116.905 62.2286 116.44 62.4987C115.981 62.7709 115.528 63.0929 115.256 63.5261L115.234 63.3489C115.654 63.714 116.171 63.9983 116.687 64.2617C117.208 64.5218 117.743 64.7569 118.281 64.9819C119.357 65.4407 120.452 65.855 121.549 66.2713C120.412 65.9844 119.297 65.6179 118.194 65.2096C117.646 64.9967 117.103 64.765 116.569 64.511C116.038 64.2516 115.506 63.9775 115.045 63.5537L114.958 63.4742L115.023 63.3765C115.355 62.8719 115.838 62.5533 116.316 62.275C116.799 61.9968 117.31 61.7839 117.826 61.5953C118.857 61.218 119.918 60.9405 120.993 60.7505Z" fill="#2A6B2A"/>
</g>
</g>
<g id="Group_10">
<path id="Vector_48" d="M42.6538 87.9719L48.6335 129.572H84.6907L90.1434 87.9719H42.6538Z" fill="#D18133"/>
<path id="Vector_49" d="M89.2333 94.9122L90.1429 87.9719H42.6533L48.6337 129.572H56.5658C55.8178 109.629 66.5788 89.64 89.2333 94.9122Z" fill="#C46C23"/>
<path id="Vector_50" d="M89.2638 91.1723H43.5333C40.9939 91.1723 38.9163 89.0502 38.9163 86.4565C38.9163 83.8628 40.9939 81.7407 43.5333 81.7407H89.2638C91.8032 81.7407 93.8808 83.8628 93.8808 86.4565C93.8808 89.0502 91.8032 91.1723 89.2638 91.1723Z" fill="#D18133"/>
</g>
<g id="Group_11">
<path id="Vector_51" d="M72.9749 77.8742C72.9749 77.8742 74.4794 72.6882 79.2745 75.1855C84.0696 77.6822 85.0102 89.4946 76.8301 98.138C76.4541 93.7206 75.7959 91.5116 72.1286 87.2863C68.462 83.0596 69.5899 78.6422 72.9749 77.8742Z" fill="#3AA33A"/>
<g id="Group_12">
<path id="Vector_52" d="M73.0545 77.592C73.9595 77.8238 74.782 78.2267 75.5227 78.7797C76.2535 79.3369 76.8702 80.0766 77.231 80.9423C77.595 81.8059 77.7026 82.7599 77.6267 83.6781C77.5364 84.5714 77.5753 85.4593 77.7402 86.3399C78.0515 88.0962 78.8713 89.773 78.9432 91.6168C78.9861 92.531 78.8047 93.4439 78.4703 94.284C78.128 95.1227 77.6584 95.8981 77.1248 96.6183C77.6419 95.8853 78.093 95.1005 78.4129 94.2611C78.7256 93.4196 78.8826 92.5176 78.8199 91.6229C78.7111 89.8194 77.8609 88.1797 77.4981 86.389C77.3095 85.4971 77.2461 84.5633 77.32 83.6552C77.3781 82.7747 77.2593 81.8814 76.9091 81.0864C76.2106 79.479 74.6006 78.4301 72.9668 78.0313L73.0545 77.592Z" fill="#207A20"/>
<path id="Vector_53" d="M80.7772 92.4043C80.5193 91.8135 80.1434 91.2921 79.7404 90.8037C79.3242 90.3253 78.8842 89.8693 78.3962 89.4664L78.5611 89.428C77.9384 90.8252 77.2511 92.2016 76.3772 93.4553C77.0849 92.1012 77.7485 90.7323 78.3671 89.3391L78.4258 89.207L78.532 89.3007C79.0148 89.7258 79.4759 90.1825 79.8631 90.7026C80.2483 91.2187 80.5945 91.7819 80.7772 92.4043Z" fill="#207A20"/>
<path id="Vector_54" d="M81.8185 88.1581C81.151 87.4561 80.4604 86.7784 79.7408 86.1398C79.3781 85.8238 79.0133 85.5112 78.6255 85.233C78.2396 84.9561 77.8353 84.6927 77.4007 84.5411L77.5181 84.5074C77.2212 84.8645 76.933 85.2276 76.6593 85.6028C76.3902 85.9814 76.1303 86.3668 75.8896 86.7643C75.6475 87.1611 75.4252 87.5707 75.2359 87.9971C75.0433 88.4208 74.8698 88.8594 74.79 89.3236C74.8349 88.854 74.9767 88.3973 75.139 87.9547C75.3085 87.5134 75.5189 87.0903 75.7464 86.6773C76.2035 85.8521 76.7589 85.0888 77.3518 84.3626L77.3993 84.304L77.4692 84.3289C77.9435 84.4973 78.3498 84.7782 78.7416 85.0659C79.1307 85.3596 79.5054 85.6702 79.8536 86.0097C80.56 86.6773 81.2117 87.3995 81.8185 88.1581Z" fill="#207A20"/>
<path id="Vector_55" d="M81.3816 82.9763C81.098 82.6765 80.7386 82.4603 80.3929 82.242C80.0407 82.0305 79.6852 81.8257 79.3145 81.6512C78.5758 81.2995 77.8094 81.0112 77.0205 80.8084L77.0871 80.803C76.103 81.2652 75.1671 81.8486 74.3664 82.6011C73.9561 82.9649 73.5815 83.3704 73.2372 83.8016C72.8922 84.2314 72.567 84.6841 72.3098 85.1793C72.7583 84.1539 73.443 83.2418 74.2404 82.4616C74.6467 82.079 75.0774 81.7199 75.5437 81.4147C76.0001 81.0934 76.4988 80.8401 77.0034 80.6083L77.0357 80.5935L77.07 80.6029C77.8687 80.8232 78.6503 81.1163 79.3798 81.5138C79.7459 81.7091 80.1027 81.9213 80.4404 82.1639C80.7742 82.4098 81.1185 82.6543 81.3816 82.9763Z" fill="#207A20"/>
<path id="Vector_56" d="M81.1839 78.1928C80.3206 77.3971 79.1366 77.0569 78.0035 77.0603C76.8558 77.0529 75.7358 77.4153 74.7122 77.9273C74.1951 78.1813 73.7136 78.4912 73.2947 78.888C72.8607 79.2639 72.4782 79.7032 72.1682 80.1916C71.5396 81.159 71.1366 82.2989 71.0706 83.4799C71.033 82.2948 71.38 81.097 72.0079 80.0852C72.3205 79.5772 72.709 79.1171 73.1516 78.7223C73.5823 78.3093 74.0961 77.9994 74.6231 77.7428C75.6712 77.2233 76.8281 76.869 78.0061 76.9155C79.1703 76.933 80.3595 77.3574 81.1839 78.1928Z" fill="#207A20"/>
</g>
</g>
</g>
</svg>
