<svg width="141" height="149" viewBox="0 0 141 149" fill="none" xmlns="http://www.w3.org/2000/svg">
<g id="Group 2062">
<path id="Vector" d="M105.75 112.928C125.218 93.4602 125.218 61.8962 105.75 42.4282C86.282 22.9602 54.718 22.9602 35.25 42.4282C15.782 61.8962 15.782 93.4602 35.25 112.928C54.718 132.396 86.282 132.396 105.75 112.928Z" fill="#8BC7B2"/>
<g id="Group">
<path id="Vector_2" fill-rule="evenodd" clip-rule="evenodd" d="M58.3431 0.716209L65.0584 0.0483261C70.5448 -0.497313 75.4712 3.64113 76.0062 9.24567L77.5867 25.8249C78.1209 31.4291 74.0687 36.4608 68.5815 37.0069L61.8666 37.6744C56.3795 38.2204 51.4531 34.0816 50.9188 28.477L49.3384 11.8978C48.8038 6.29403 52.8559 1.26185 58.3431 0.716209Z" fill="#D08174"/>
<path id="Vector_3" fill-rule="evenodd" clip-rule="evenodd" d="M63.0138 6.22002C47.3956 8.22164 34.6502 14.335 34.5456 19.874C34.4413 25.4125 47.0183 28.28 62.6365 26.2779C78.2551 24.2763 91.0009 18.163 91.1047 12.6244C91.2081 7.08543 78.6319 4.21799 63.0138 6.22002Z" fill="#BE7775"/>
<path id="Vector_4" fill-rule="evenodd" clip-rule="evenodd" d="M44.8052 26.3112C49.6503 27.0973 55.8568 27.1467 62.6363 26.278C69.0516 25.4555 74.9806 23.9396 79.7497 22.0546L76.3594 15.9914L72.3694 17.7235L51.2149 15.8777L44.8052 26.3112Z" fill="#875371"/>
<path id="Vector_5" fill-rule="evenodd" clip-rule="evenodd" d="M57.8145 43.3269C57.8145 43.3269 59.0208 42.8857 60.7245 43.0764C62.4278 43.267 71.0549 43.0764 71.0549 43.0764C71.0549 43.0764 72.3219 43.3047 72.9761 43.8188L72.9008 44.8566C72.9008 44.8566 67.3249 46.8072 67.1715 46.8072C67.0174 46.8072 59.8142 46.2834 59.8142 46.2834C59.8142 46.2834 57.6607 45.0792 57.8145 43.3269Z" fill="#30295E"/>
<path id="Vector_6" d="M71.998 40.165H58.8809V49.7651H71.998V40.165Z" fill="#D58881"/>
<path id="Vector_7" fill-rule="evenodd" clip-rule="evenodd" d="M75.3196 49.8548C75.3196 49.8548 88.4534 55.1659 89.567 55.8034C90.681 56.4413 91.1847 56.9679 91.1847 56.9679C91.1847 56.9679 89.3031 65.6888 89.9871 77.3553C90.4492 85.2493 89.395 95.2226 88.665 100.846H41.797C42.5698 95.0894 43.3022 89.5508 43.5027 87.6334C43.9592 83.2671 40.4433 60.7421 39.1565 57.2913L55.3362 49.3059C56.3531 48.9133 57.5064 48.2069 57.5198 46.9926C57.5416 45.0784 57.5365 45.518 57.5579 43.6042C57.5579 43.6042 57.6613 43.3561 57.8151 43.3265C60.9248 46.0859 69.6771 46.2013 72.9767 43.8183C73.1301 43.8519 73.2276 44.1029 73.2276 44.1029C73.2066 46.0167 73.2113 45.5779 73.1895 47.4913C73.1749 48.7056 74.3119 49.4387 75.3196 49.8548Z" fill="#413B73"/>
<path id="Vector_8" fill-rule="evenodd" clip-rule="evenodd" d="M89.9009 68.8279C89.805 71.3933 89.8066 74.2709 89.9877 77.3553C90.3769 84.0042 89.6905 92.1272 89.0287 97.8852C78.5794 98.6696 63.9179 98.6085 59.1667 97.3683C53.2095 95.8148 46.0539 95.7714 42.5696 95.0432C43.0151 91.665 43.3714 88.8813 43.5025 87.6338C43.7383 85.38 42.9152 78.2875 41.8872 71.4779C43.9408 76.7206 47.7794 76.5413 47.7794 76.5413C47.7794 76.5413 79.7374 74.5105 84.6151 73.6597C89.4939 72.808 89.6655 68.638 89.6655 68.638L89.9009 68.8279Z" fill="#30295E"/>
<path id="Vector_9" fill-rule="evenodd" clip-rule="evenodd" d="M84.0308 75.1754C84.0308 75.1754 51.2378 76.7873 49.6027 77.1852C47.9676 77.5827 46.3233 78.8124 46.4509 81.9785C46.5777 85.1439 45.2866 108.274 38.8816 109.703C38.8816 109.703 38.5776 114.946 38.5578 116.694C38.555 116.941 38.4671 117.637 38.3188 118.647C46.2548 124.349 55.9272 127.698 66.367 127.698C76.1421 127.698 85.2447 124.761 92.8786 119.705C91.8661 112.614 89.4637 99.5552 89.4637 99.5552C89.4637 99.5552 86.1526 82.2777 85.7718 79.8587C85.3913 77.4394 85.4179 75.1285 84.0308 75.1754Z" fill="#D08174"/>
<path id="Vector_10" fill-rule="evenodd" clip-rule="evenodd" d="M41.6263 107.443C40.8365 108.654 39.9278 109.469 38.8816 109.702C38.8816 109.702 38.5776 114.945 38.5582 116.694C38.5562 116.858 38.5899 117.05 38.6521 117.263C40.7212 117.132 44.6037 116.922 47.4413 115.838C50.2788 114.754 71.2648 101.574 71.2648 101.574L91.6061 111.702C91.1999 107.322 89.7423 102.189 89.5493 100.362L70.0926 94.0744L41.6263 107.443Z" fill="#BE7775"/>
<path id="Vector_11" fill-rule="evenodd" clip-rule="evenodd" d="M46.0039 92.3512L46.9305 92.3306C46.9305 92.3306 51.4982 91.9209 54.9642 91.9639C58.4295 92.008 78.1621 88.1185 82.2055 87.4575C86.2489 86.7973 88.2954 86.7681 90.4402 87.7777C92.585 88.7872 90.3534 95.1316 90.3534 95.1316L86.3068 99.6631L84.875 98.9499C84.875 98.9499 78.3424 97.4882 76.9553 97.5546C75.5691 97.6218 50.6489 109.57 49.1747 110.136C47.7009 110.701 46.0039 92.3512 46.0039 92.3512Z" fill="#E9BAA8"/>
<path id="Vector_12" fill-rule="evenodd" clip-rule="evenodd" d="M72.3212 99.4325C71.4204 99.8324 70.4273 100.282 69.3723 100.763L58.6516 93.6304L60.5253 92.9977L74.1343 97.864L72.3212 99.4325Z" fill="#D58881"/>
<path id="Vector_13" fill-rule="evenodd" clip-rule="evenodd" d="M39.1564 57.2922C39.1564 57.2922 33.6249 59.8285 32.5144 67.9346C31.404 76.0406 31.6339 82.7474 30.5504 88.4592C29.4669 94.171 28.2744 100.508 29.138 105.306C30.0011 110.104 34.5415 114.113 40.3536 113.868C42.7727 113.789 48.5868 112.826 49.0183 112.539C49.4495 112.252 49.5628 111.948 49.5628 111.948C51.1457 104.228 48.1774 92.377 48.0791 92.0491C47.9808 91.7201 47.665 91.7172 47.665 91.7172C47.149 91.744 44.6547 91.9646 43.6346 92.0556C43.4507 92.0649 43.3037 92.0779 43.1979 92.0945C43.1979 92.0945 43.933 90.8729 43.1166 90.8377C43.1166 90.8377 43.6386 89.1704 43.8292 85.8411C44.0198 82.5114 40.8569 60.3033 39.1564 57.2922Z" fill="#875371"/>
<path id="Vector_14" fill-rule="evenodd" clip-rule="evenodd" d="M84.8063 90.9502C84.8063 90.9502 66.6352 88.301 63.7033 87.9743C60.7719 87.6485 53.8917 90.0545 52.3188 90.5936C50.7451 91.132 50.4685 92.084 50.4685 92.084L54.9645 91.9638C54.9645 91.9638 60.1462 94.1973 63.3055 95.9824C66.4652 97.7691 84.1512 105.555 84.8011 105.729C85.4511 105.903 84.8063 90.9502 84.8063 90.9502Z" fill="#E9BAA8"/>
<path id="Vector_15" fill-rule="evenodd" clip-rule="evenodd" d="M91.1855 56.9677C97.0789 59.1065 100.117 75.6218 102.831 82.0569C108.186 94.7552 104.517 108.658 91.927 108.269L91.9286 108.275C90.7659 108.389 85.0698 107.339 84.2194 106.828C83.3697 106.318 81.4005 101.692 81.9684 96.7677C82.5367 91.8432 84.7124 90.2432 84.7124 90.2432L88.2149 90.4208C88.2149 90.4208 88.3052 89.2247 89.424 89.4198L89.9713 86.6629C89.9713 86.6629 88.5343 64.3751 91.1855 56.9677Z" fill="#875371"/>
<path id="Vector_16" fill-rule="evenodd" clip-rule="evenodd" d="M82.0323 52.5922C82.0323 52.5922 82.7111 70.1466 83.0004 73.314C83.0004 73.314 83.1173 73.8151 82.5455 73.9543C81.9736 74.0932 80.4641 74.1588 80.4641 74.1588C80.4641 74.1588 80.0361 74.1328 79.8974 73.7564C79.7595 73.3804 78.0669 50.9707 78.0669 50.9707C78.0669 50.9707 78.3542 50.8476 78.4763 50.8598C78.5987 50.8715 81.7041 52.0842 81.7041 52.0842C81.7041 52.0842 81.9471 52.2126 82.0323 52.5922Z" fill="#D08174"/>
<path id="Vector_17" fill-rule="evenodd" clip-rule="evenodd" d="M49.4256 52.2235C49.4743 52.8291 51.113 71.8722 51.4 74.9987C51.4 74.9987 51.5165 75.4998 50.9446 75.6391C50.3724 75.7783 48.8632 75.8439 48.8632 75.8439C48.8632 75.8439 48.4206 75.7775 48.2969 75.4407C48.1737 75.1056 46.5936 61.6423 45.8105 54.0082C45.8823 53.8969 45.8652 53.7378 46.0123 53.6055C46.7105 52.9764 48.2557 52.2296 49.0697 52.126C49.1807 52.1114 49.3416 52.2134 49.4256 52.2235Z" fill="#D08174"/>
<path id="Vector_18" fill-rule="evenodd" clip-rule="evenodd" d="M49.2287 74.8578L50.368 74.7312C50.4972 74.7178 50.6213 74.7591 50.7156 74.8368C50.8111 74.9153 50.8777 75.0307 50.8919 75.1647L51.1281 77.3784C51.1424 77.512 51.1016 77.6399 51.0247 77.7374C50.9482 77.8346 50.8345 77.9034 50.7033 77.9176L49.5592 78.0447C49.4296 78.0572 49.306 78.0163 49.2116 77.9386C49.1165 77.8605 49.0499 77.7447 49.0353 77.6111C48.9632 76.872 48.874 76.1321 48.7987 75.3926C48.786 75.2606 48.8264 75.1347 48.9029 75.0384C48.979 74.9404 49.0927 74.8724 49.2235 74.8583L49.2287 74.8578ZM50.3898 75.0534L49.2532 75.1805C49.2112 75.1861 49.174 75.2088 49.1486 75.2412C49.1237 75.2719 49.1102 75.314 49.1134 75.3573C49.1823 76.0932 49.2655 76.8453 49.3507 77.5804C49.3563 77.6237 49.3781 77.6609 49.4102 77.6872C49.4403 77.7127 49.4815 77.7269 49.5239 77.7229L50.67 77.5962C50.714 77.5913 50.7524 77.5678 50.7786 77.5346C50.8048 77.5014 50.8186 77.4581 50.8139 77.412L50.5769 75.195C50.5709 75.1517 50.5488 75.1137 50.5174 75.0874C50.4865 75.0619 50.4457 75.0485 50.4033 75.0517L50.3898 75.0534Z" fill="white"/>
<path id="Vector_19" fill-rule="evenodd" clip-rule="evenodd" d="M80.8046 73.0416L81.9439 72.9149C82.0731 72.9019 82.1972 72.9432 82.2915 73.0213C82.3866 73.0994 82.4532 73.2152 82.4678 73.3484L82.704 75.5617C82.7187 75.6953 82.6779 75.8232 82.6002 75.9207C82.5245 76.0187 82.41 76.0867 82.2792 76.1009L81.1351 76.228C81.0059 76.2413 80.8826 76.1996 80.7875 76.1219C80.6924 76.0438 80.6258 75.928 80.6112 75.7944C80.5398 75.0553 80.4503 74.3158 80.375 73.5767C80.3619 73.4447 80.4027 73.3184 80.478 73.2221C80.5553 73.1245 80.6682 73.0565 80.7994 73.042L80.8046 73.0416ZM81.9657 73.2371L80.8295 73.3642C80.7871 73.3702 80.7499 73.3929 80.7249 73.4249C80.6999 73.456 80.6861 73.4977 80.6884 73.5411C80.7582 74.2773 80.8418 75.0286 80.9262 75.7637C80.9326 75.807 80.9548 75.845 80.9857 75.8705C81.0166 75.896 81.0578 75.9102 81.1002 75.907L82.2459 75.7799C82.2899 75.775 82.3279 75.7523 82.3541 75.7183C82.3802 75.6852 82.3945 75.6418 82.3898 75.5957L82.1528 73.3791C82.1472 73.3362 82.125 73.2982 82.0933 73.2723C82.0624 73.2468 82.022 73.2326 81.9796 73.2359L81.9657 73.2371Z" fill="white"/>
<path id="Vector_20" d="M73.3284 48.2131C73.3284 48.2131 68.2161 51.5974 58.6665 48.8648" stroke="#30295E" stroke-width="1.4173" stroke-miterlimit="2.6131" stroke-linecap="round" stroke-linejoin="round"/>
<path id="Vector_21" d="M84.0699 90.843C80.6403 90.3452 66.2808 88.2618 63.7028 87.9748C60.7714 87.6489 53.8913 90.0549 52.3183 90.5941C50.7446 91.1324 50.468 92.0845 50.468 92.0845L54.964 91.9643C54.964 91.9643 60.1457 94.1978 63.305 95.9829" stroke="#D58881" stroke-width="1.4173" stroke-miterlimit="2.6131" stroke-linecap="round" stroke-linejoin="round"/>
<path id="Vector_22" d="M43.6354 82.4446C43.6354 82.4446 41.5588 74.621 37.7163 71.7953" stroke="#663B55" stroke-width="1.4173" stroke-miterlimit="2.6131" stroke-linecap="round" stroke-linejoin="round"/>
<path id="Vector_23" d="M30.2883 89.8498C30.2883 89.8498 33.0383 78.157 33.3731 76.3428" stroke="#663B55" stroke-width="1.4173" stroke-miterlimit="2.6131" stroke-linecap="round" stroke-linejoin="round"/>
<path id="Vector_24" d="M43.1982 92.0942C43.1982 92.0942 38.7728 94.2128 37.0469 98.7374" stroke="#663B55" stroke-width="1.4173" stroke-miterlimit="2.6131" stroke-linecap="round" stroke-linejoin="round"/>
<path id="Vector_25" d="M43.1168 90.8374C43.1168 90.8374 39.7546 90.7479 37.4854 92.3261" stroke="#663B55" stroke-width="1.4173" stroke-miterlimit="2.6131" stroke-linecap="round" stroke-linejoin="round"/>
<path id="Vector_26" d="M88.2144 90.4207C88.2144 90.4207 93.8359 90.5818 95.1092 93.7512" stroke="#663B55" stroke-width="1.4173" stroke-miterlimit="2.6131" stroke-linecap="round" stroke-linejoin="round"/>
<path id="Vector_27" d="M89.4236 89.4197C89.4236 89.4197 92.2813 89.2537 93.6628 89.7249" stroke="#663B55" stroke-width="1.4173" stroke-miterlimit="2.6131" stroke-linecap="round" stroke-linejoin="round"/>
<path id="Vector_28" d="M89.6658 79.574C89.6658 79.574 89.6139 72.7256 93.735 69.3521" stroke="#663B55" stroke-width="1.4173" stroke-miterlimit="2.6131" stroke-linecap="round" stroke-linejoin="round"/>
<path id="Vector_29" d="M100.936 76.5102C100.936 76.5102 103.139 85.1291 102.166 87.7379" stroke="#663B55" stroke-width="1.4173" stroke-miterlimit="2.6131" stroke-linecap="round" stroke-linejoin="round"/>
<path id="Vector_30" d="M89.8569 84.6013C89.8569 84.6013 90.9206 82.2588 92.4468 81.5282" stroke="#663B55" stroke-width="1.4173" stroke-miterlimit="2.6131" stroke-linecap="round" stroke-linejoin="round"/>
<path id="Vector_31" d="M73.9959 49.0839C73.9959 49.0839 71.1001 52.5609 64.344 52.8026" stroke="#30295E" stroke-width="1.4173" stroke-miterlimit="2.6131" stroke-linecap="round" stroke-linejoin="round"/>
<path id="Vector_32" fill-rule="evenodd" clip-rule="evenodd" d="M50.3422 25.9289C50.2506 25.9519 50.1607 25.9779 50.0715 26.007L50.0687 26.0082L50.0691 26.0078C48.4284 26.5518 47.3132 28.196 47.4718 30.0256C47.6568 32.1519 49.4945 33.7228 51.5755 33.5338C53.6572 33.3452 55.1957 31.4686 55.0106 29.3424C54.9032 28.1066 54.2382 27.0582 53.2906 26.4344C53.5062 27.5585 53.4781 28.9821 52.0756 29.2788L51.8826 27.0586C51.8045 26.16 50.9422 25.8378 50.3422 25.9289Z" fill="#D58881"/>
<path id="Vector_33" fill-rule="evenodd" clip-rule="evenodd" d="M77.4977 22.9355C77.592 22.9383 77.6852 22.944 77.7787 22.9529L77.7811 22.9537C79.4971 23.1278 80.9305 24.4907 81.158 26.3126C81.4211 28.43 79.9536 30.3656 77.8806 30.6344C75.8071 30.904 73.912 29.4055 73.6489 27.2881C73.4955 26.0572 73.9267 24.8882 74.7216 24.0725C74.7458 25.2172 75.0708 26.602 76.5034 26.5866L76.2288 24.3753C76.1178 23.4799 76.8926 22.9772 77.4977 22.9355Z" fill="#D58881"/>
<path id="Vector_34" fill-rule="evenodd" clip-rule="evenodd" d="M50.3388 17.8071C50.3099 18.4669 50.3293 19.1368 50.4003 19.8128L51.6645 31.7804C52.4293 39.0166 58.8521 44.2981 65.9376 43.5169C73.021 42.7361 78.1924 36.1767 77.4283 28.9401L76.1637 16.9729C76.0833 16.2139 75.9406 15.4764 75.7416 14.7652C73.4395 10.9421 69.3771 10.9587 68.0316 11.0785C66.2503 11.2368 64.5462 11.474 56.8778 12.4232C52.8331 12.9239 51.0866 15.4918 50.3388 17.8071Z" fill="#E9BAA8"/>
<path id="Vector_35" fill-rule="evenodd" clip-rule="evenodd" d="M61.481 33.519C61.6629 35.4012 63.3051 36.7762 65.1471 36.59C66.9903 36.4042 68.3361 34.7276 68.1542 32.8458L68.1487 32.8466C68.117 32.5224 67.8328 32.2836 67.5154 32.316L62.0061 32.8722C61.689 32.9037 61.4552 33.1948 61.4865 33.5182L61.481 33.519Z" fill="#30295E"/>
<path id="Vector_36" fill-rule="evenodd" clip-rule="evenodd" d="M62.9805 36.0473C63.5987 36.4609 64.3544 36.6702 65.1474 36.5905C65.795 36.5257 66.3811 36.276 66.861 35.8983C66.5373 35.2248 65.7375 34.7767 64.832 34.8337C63.9677 34.8872 63.2535 35.3855 62.9805 36.0473Z" fill="#C35A5A"/>
<path id="Vector_37" fill-rule="evenodd" clip-rule="evenodd" d="M67.5901 32.3138L62.4121 32.8363C62.3863 33.4298 62.7085 33.9936 63.106 34.0839C63.5899 34.1928 67.3278 33.7147 67.5632 33.3864C67.6773 33.2286 67.6496 32.7578 67.5901 32.3138Z" fill="white"/>
<path id="Vector_38" fill-rule="evenodd" clip-rule="evenodd" d="M72.6615 29.2696C71.6173 29.3643 70.8465 30.3062 70.9392 31.3716C71.0319 32.4377 71.9533 33.2254 72.9972 33.1311C74.0407 33.0364 74.8122 32.0949 74.7195 31.0291C74.6264 29.9629 73.7046 29.1752 72.6615 29.2696Z" fill="#D58881"/>
<path id="Vector_39" fill-rule="evenodd" clip-rule="evenodd" d="M56.4343 31.0582C55.3905 31.1533 54.6193 32.0944 54.7116 33.1602C54.8039 34.2268 55.7261 35.0141 56.7696 34.9198C57.8134 34.8255 58.5846 33.8843 58.4923 32.8178C58.3996 31.7516 57.4782 30.9639 56.4343 31.0582Z" fill="#D58881"/>
<path id="Vector_40" fill-rule="evenodd" clip-rule="evenodd" d="M55.8187 24.154C55.6059 24.294 55.3206 24.2305 55.1838 24.0127C55.0467 23.7949 55.1085 23.5035 55.321 23.3642C56.4663 22.5923 58.0788 22.3393 59.345 22.9372C59.5744 23.0453 59.6759 23.3258 59.5701 23.5602C59.4643 23.7949 59.1892 23.8985 58.9598 23.7901C57.935 23.3072 56.7437 23.5703 55.8187 24.154Z" fill="#30295E"/>
<path id="Vector_41" fill-rule="evenodd" clip-rule="evenodd" d="M72.2657 22.3418C71.2393 21.9726 70.0203 21.9747 69.1199 22.6709C68.9177 22.8267 68.6276 22.785 68.4751 22.579C68.3225 22.373 68.3637 22.0767 68.565 21.9212C69.6775 21.0611 71.3058 20.9566 72.5847 21.461C72.8225 21.5513 72.9438 21.8221 72.8558 22.0645C72.7666 22.3074 72.5019 22.4312 72.2657 22.3418Z" fill="#30295E"/>
<path id="Vector_42" fill-rule="evenodd" clip-rule="evenodd" d="M51.4311 29.5699C51.4311 29.5699 53.2723 28.5567 52.9164 25.191C52.5606 21.8257 52.6481 22.6543 52.4627 20.8983C52.2772 19.142 53.1463 15.9374 56.6321 15.5533C60.8175 15.0918 65.0016 14.6308 69.1861 14.1693C72.6724 13.7848 74.191 16.7263 74.3769 18.4826C74.5619 20.2385 74.4744 19.4096 74.8298 22.7753C75.1857 26.1406 77.1969 26.7295 77.1969 26.7295C76.9144 24.0604 77.6004 22.9238 77.6004 22.9238L77.2738 19.8309C76.3675 10.94 69.8139 10.9202 68.0321 11.0784C66.2507 11.2367 64.5466 11.4739 56.8782 12.4231C49.2094 13.3727 49.8003 21.754 49.8003 21.754L50.2422 25.9394C50.2414 25.9394 51.1485 26.9008 51.4311 29.5699Z" fill="#30295E"/>
<path id="Vector_43" fill-rule="evenodd" clip-rule="evenodd" d="M70.8562 24.2064C71.4312 24.1429 71.9531 24.5715 72.0142 25.1593L72.1612 26.5521C72.2238 27.1395 71.8045 27.6721 71.2291 27.7353C70.6541 27.7984 70.1321 27.3702 70.0703 26.7824L69.9233 25.3896C69.8615 24.8019 70.2811 24.2696 70.8562 24.2064Z" fill="#30295E"/>
<path id="Vector_44" fill-rule="evenodd" clip-rule="evenodd" d="M63.6467 28.754C63.4327 29.2008 63.1478 29.8315 63.044 30.2322C62.7416 31.4105 64.9387 31.8784 64.9311 30.6767C64.928 30.2476 64.756 29.6696 64.5543 29.1749C64.0137 27.8525 64.0058 28.0096 63.6467 28.754Z" fill="#F1D3C8"/>
<path id="Vector_45" fill-rule="evenodd" clip-rule="evenodd" d="M56.3456 28.4245C56.1443 28.5759 55.8712 28.501 55.7369 28.2577C55.6025 28.0136 55.6568 27.6926 55.8574 27.5413C56.9381 26.7058 58.4737 26.4532 59.6927 27.1373C59.9135 27.2612 60.0149 27.5732 59.9175 27.8315C59.8204 28.0897 59.5596 28.1994 59.3385 28.076C58.3521 27.5226 57.2194 27.7942 56.3456 28.4245Z" fill="#30295E"/>
<path id="Vector_46" fill-rule="evenodd" clip-rule="evenodd" d="M61.3101 7.32736C76.9279 5.32574 89.5052 8.19318 89.4006 13.7313C89.3657 15.6059 87.882 17.546 85.3306 19.3707C88.9167 17.2379 91.0623 14.8833 91.1047 12.6239C91.2085 7.0853 78.6319 4.21746 63.0138 6.21948C52.681 7.54391 43.6054 10.668 38.616 14.2345C43.8218 11.1391 52.0624 8.51254 61.3101 7.32736Z" fill="#D58C75"/>
</g>
</g>
</svg>
