<svg width="80" height="80" viewBox="0 0 80 80" fill="none" xmlns="http://www.w3.org/2000/svg">
<g id="partly_cloudy_day">
<mask id="mask0_133_5287" style="mask-type:alpha" maskUnits="userSpaceOnUse" x="0" y="0" width="80" height="80">
<rect id="Bounding box" width="80" height="80" fill="#D9D9D9"/>
</mask>
<g mask="url(#mask0_133_5287)">
<path id="partly_cloudy_day_2" d="M20.0001 66.6667C16.3334 66.6667 13.1945 65.3611 10.5834 62.75C7.9723 60.1389 6.66675 57 6.66675 53.3333C6.66675 49.6667 7.9723 46.5278 10.5834 43.9167C13.1945 41.3056 16.3334 40 20.0001 40C22.6667 40 25.1251 40.7222 27.3751 42.1667C29.6251 43.6111 31.2501 45.5833 32.2501 48.0833L33.0834 50H35.0834C37.4167 50 39.3751 50.8056 40.9584 52.4167C42.5417 54.0278 43.3334 56 43.3334 58.3333C43.3334 60.6667 42.5279 62.6389 40.9167 64.25C39.3056 65.8611 37.3334 66.6667 35.0001 66.6667H20.0001ZM49.9167 57.3333C49.6945 53.8333 48.4306 50.8056 46.1251 48.25C43.8195 45.6945 40.9167 44.1111 37.4167 43.5C35.6945 40.5 33.3751 38.125 30.4584 36.375C27.5417 34.625 24.3334 33.6111 20.8334 33.3333C22.2779 29.2778 24.7501 26.0417 28.2501 23.625C31.7501 21.2083 35.6667 20 40.0001 20C45.5556 20 50.2779 21.9445 54.1667 25.8333C58.0556 29.7222 60.0001 34.4445 60.0001 40C60.0001 43.6111 59.1112 46.9583 57.3334 50.0417C55.5556 53.125 53.0834 55.5556 49.9167 57.3333ZM36.6667 16.6667V3.33334H43.3334V16.6667H36.6667ZM58.8334 25.8333L54.1667 21.1667L63.5001 11.6667L68.2501 16.4167L58.8334 25.8333ZM63.3334 43.3333V36.6667H76.6667V43.3333H63.3334ZM63.5001 68.3333L54.1667 58.8333L58.8334 54.1667L68.3334 63.5L63.5001 68.3333ZM21.1667 25.8333L11.7501 16.4167L16.5001 11.6667L25.8334 21.1667L21.1667 25.8333Z" fill="#F9FAFB"/>
</g>
</g>
</svg>
